<svg width="1281" height="693" viewBox="0 0 1281 693" fill="none" xmlns="http://www.w3.org/2000/svg">
<g opacity="0.15">
<path d="M36.5714 0V31.5H0V0H36.5714ZM0.500002 31H36.0714V0.5H0.500002V31Z" fill="#235347"/>
<path d="M73.1427 0V31.5H36.5714V0H73.1427ZM37.0713 31H72.6427V0.5H37.0713V31Z" fill="#235347"/>
<path d="M109.714 0V31.5H73.1427V0H109.714ZM73.6431 31H109.214V0.5H73.6431V31Z" fill="#235347"/>
<path d="M146.286 0V31.5H109.714V0H146.286ZM110.214 31H145.786V0.5H110.214V31Z" fill="#235347"/>
<path d="M182.857 0V31.5H146.286V0H182.857ZM146.786 31H182.357V0.5H146.786V31Z" fill="#235347"/>
<path d="M219.428 0V31.5H182.857V0H219.428ZM183.357 31H218.928V0.5H183.357V31Z" fill="#235347"/>
<path d="M256 0V31.5H219.428V0H256ZM219.929 31H255.5V0.5H219.929V31Z" fill="#235347"/>
<path d="M36.5714 31.5V63H0V31.5H36.5714ZM0.500002 62.5H36.0714V32H0.500002V62.5Z" fill="#235347"/>
<path d="M73.1427 31.5V63H36.5714V31.5H73.1427ZM37.0713 62.5H72.6427V32H37.0713V62.5Z" fill="#235347"/>
<path d="M109.714 31.5V63H73.1427V31.5H109.714ZM73.6431 62.5H109.214V32H73.6431V62.5Z" fill="#235347"/>
<path d="M146.286 31.5V63H109.714V31.5H146.286ZM110.214 62.5H145.786V32H110.214V62.5Z" fill="#235347"/>
<path d="M182.857 31.5V63H146.286V31.5H182.857ZM146.786 62.5H182.357V32H146.786V62.5Z" fill="#235347"/>
<path d="M219.428 31.5V63H182.857V31.5H219.428ZM183.357 62.5H218.928V32H183.357V62.5Z" fill="#235347"/>
<path d="M256 31.5V63H219.428V31.5H256ZM219.929 62.5H255.5V32H219.929V62.5Z" fill="#235347"/>
<path d="M36.5714 63V94.5H0V63H36.5714ZM0.500002 94H36.0714V63.5H0.500002V94Z" fill="#235347"/>
<path d="M73.1427 63V94.5H36.5714V63H73.1427ZM37.0713 94H72.6427V63.5H37.0713V94Z" fill="#235347"/>
<path d="M109.714 63V94.5H73.1427V63H109.714ZM73.6431 94H109.214V63.5H73.6431V94Z" fill="#235347"/>
<path d="M146.286 63V94.5H109.714V63H146.286ZM110.214 94H145.786V63.5H110.214V94Z" fill="#235347"/>
<path d="M182.857 63V94.5H146.286V63H182.857ZM146.786 94H182.357V63.5H146.786V94Z" fill="#235347"/>
<path d="M219.428 63V94.5H182.857V63H219.428ZM183.357 94H218.928V63.5H183.357V94Z" fill="#235347"/>
<path d="M256 63V94.5H219.428V63H256ZM219.929 94H255.5V63.5H219.929V94Z" fill="#235347"/>
<path d="M36.5714 94.5V126H0V94.5H36.5714ZM0.500002 125.5H36.0714V95H0.500002V125.5Z" fill="#235347"/>
<path d="M73.1427 94.5V126H36.5714V94.5H73.1427ZM37.0713 125.5H72.6427V95H37.0713V125.5Z" fill="#235347"/>
<path d="M109.714 94.5V126H73.1427V94.5H109.714ZM73.6431 125.5H109.214V95H73.6431V125.5Z" fill="#235347"/>
<path d="M146.286 94.5V126H109.714V94.5H146.286ZM110.214 125.5H145.786V95H110.214V125.5Z" fill="#235347"/>
<path d="M182.857 94.5V126H146.286V94.5H182.857ZM146.786 125.5H182.357V95H146.786V125.5Z" fill="#235347"/>
<path d="M219.428 94.5V126H182.857V94.5H219.428ZM183.357 125.5H218.928V95H183.357V125.5Z" fill="#235347"/>
<path d="M256 94.5V126H219.428V94.5H256ZM219.929 125.5H255.5V95H219.929V125.5Z" fill="#235347"/>
<path d="M36.5714 126V157.5H0V126H36.5714ZM0.500002 157H36.0714V126.5H0.500002V157Z" fill="#235347"/>
<path d="M73.1427 126V157.5H36.5714V126H73.1427ZM37.0713 157H72.6427V126.5H37.0713V157Z" fill="#235347"/>
<path d="M109.714 126V157.5H73.1427V126H109.714ZM73.6431 157H109.214V126.5H73.6431V157Z" fill="#235347"/>
<path d="M146.286 126V157.5H109.714V126H146.286ZM110.214 157H145.786V126.5H110.214V157Z" fill="#235347"/>
<path d="M182.857 126V157.5H146.286V126H182.857ZM146.786 157H182.357V126.5H146.786V157Z" fill="#235347"/>
<path d="M219.428 126V157.5H182.857V126H219.428ZM183.357 157H218.928V126.5H183.357V157Z" fill="#235347"/>
<path d="M256 126V157.5H219.428V126H256ZM219.929 157H255.5V126.5H219.929V157Z" fill="#235347"/>
<path d="M36.5714 157.5V189H0V157.5H36.5714ZM0.500002 188.5H36.0714V158H0.500002V188.5Z" fill="#235347"/>
<path d="M73.1427 157.5V189H36.5714V157.5H73.1427ZM37.0713 188.5H72.6427V158H37.0713V188.5Z" fill="#235347"/>
<path d="M109.714 157.5V189H73.1427V157.5H109.714ZM73.6431 188.5H109.214V158H73.6431V188.5Z" fill="#235347"/>
<path d="M146.286 157.5V189H109.714V157.5H146.286ZM110.214 188.5H145.786V158H110.214V188.5Z" fill="#235347"/>
<path d="M182.857 157.5V189H146.286V157.5H182.857ZM146.786 188.5H182.357V158H146.786V188.5Z" fill="#235347"/>
<path d="M219.428 157.5V189H182.857V157.5H219.428ZM183.357 188.5H218.928V158H183.357V188.5Z" fill="#235347"/>
<path d="M256 157.5V189H219.428V157.5H256ZM219.929 188.5H255.5V158H219.929V188.5Z" fill="#235347"/>
<path d="M36.5714 189V220.5H0V189H36.5714ZM0.500002 220H36.0714V189.5H0.500002V220Z" fill="#235347"/>
<path d="M73.1427 189V220.5H36.5714V189H73.1427ZM37.0713 220H72.6427V189.5H37.0713V220Z" fill="#235347"/>
<path d="M109.714 189V220.5H73.1427V189H109.714ZM73.6431 220H109.214V189.5H73.6431V220Z" fill="#235347"/>
<path d="M146.286 189V220.5H109.714V189H146.286ZM110.214 220H145.786V189.5H110.214V220Z" fill="#235347"/>
<path d="M182.857 189V220.5H146.286V189H182.857ZM146.786 220H182.357V189.5H146.786V220Z" fill="#235347"/>
<path d="M219.428 189V220.5H182.857V189H219.428ZM183.357 220H218.928V189.5H183.357V220Z" fill="#235347"/>
<path d="M256 189V220.5H219.428V189H256ZM219.929 220H255.5V189.5H219.929V220Z" fill="#235347"/>
<path d="M36.5714 220.5V252H0V220.5H36.5714ZM0.500002 251.5H36.0714V221H0.500002V251.5Z" fill="#235347"/>
<path d="M73.1427 220.5V252H36.5714V220.5H73.1427ZM37.0713 251.5H72.6427V221H37.0713V251.5Z" fill="#235347"/>
<path d="M109.714 220.5V252H73.1427V220.5H109.714ZM73.6431 251.5H109.214V221H73.6431V251.5Z" fill="#235347"/>
<path d="M146.286 220.5V252H109.714V220.5H146.286ZM110.214 251.5H145.786V221H110.214V251.5Z" fill="#235347"/>
<path d="M182.857 220.5V252H146.286V220.5H182.857ZM146.786 251.5H182.357V221H146.786V251.5Z" fill="#235347"/>
<path d="M219.428 220.5V252H182.857V220.5H219.428ZM183.357 251.5H218.928V221H183.357V251.5Z" fill="#235347"/>
<path d="M256 220.5V252H219.428V220.5H256ZM219.929 251.5H255.5V221H219.929V251.5Z" fill="#235347"/>
<path d="M36.5714 252V283.5H0V252H36.5714ZM0.500002 283H36.0714V252.5H0.500002V283Z" fill="#235347"/>
<path d="M73.1427 252V283.5H36.5714V252H73.1427ZM37.0713 283H72.6427V252.5H37.0713V283Z" fill="#235347"/>
<path d="M109.714 252V283.5H73.1427V252H109.714ZM73.6431 283H109.214V252.5H73.6431V283Z" fill="#235347"/>
<path d="M146.286 252V283.5H109.714V252H146.286ZM110.214 283H145.786V252.5H110.214V283Z" fill="#235347"/>
<path d="M182.857 252V283.5H146.286V252H182.857ZM146.786 283H182.357V252.5H146.786V283Z" fill="#235347"/>
<path d="M219.428 252V283.5H182.857V252H219.428ZM183.357 283H218.928V252.5H183.357V283Z" fill="#235347"/>
<path d="M256 252V283.5H219.428V252H256ZM219.929 283H255.5V252.5H219.929V283Z" fill="#235347"/>
<path d="M36.5714 283.5V315H0V283.5H36.5714ZM0.500002 314.5H36.0714V284H0.500002V314.5Z" fill="#235347"/>
<path d="M73.1427 283.5V315H36.5714V283.5H73.1427ZM37.0713 314.5H72.6427V284H37.0713V314.5Z" fill="#235347"/>
<path d="M109.714 283.5V315H73.1427V283.5H109.714ZM73.6431 314.5H109.214V284H73.6431V314.5Z" fill="#235347"/>
<path d="M146.286 283.5V315H109.714V283.5H146.286ZM110.214 314.5H145.786V284H110.214V314.5Z" fill="#235347"/>
<path d="M182.857 283.5V315H146.286V283.5H182.857ZM146.786 314.5H182.357V284H146.786V314.5Z" fill="#235347"/>
<path d="M219.428 283.5V315H182.857V283.5H219.428ZM183.357 314.5H218.928V284H183.357V314.5Z" fill="#235347"/>
<path d="M256 283.5V315H219.428V283.5H256ZM219.929 314.5H255.5V284H219.929V314.5Z" fill="#235347"/>
<path d="M36.5714 315V346.5H0V315H36.5714ZM0.500002 346H36.0714V315.5H0.500002V346Z" fill="#235347"/>
<path d="M73.1427 315V346.5H36.5714V315H73.1427ZM37.0713 346H72.6427V315.5H37.0713V346Z" fill="#235347"/>
<path d="M109.714 315V346.5H73.1427V315H109.714ZM73.6431 346H109.214V315.5H73.6431V346Z" fill="#235347"/>
<path d="M146.286 315V346.5H109.714V315H146.286ZM110.214 346H145.786V315.5H110.214V346Z" fill="#235347"/>
<path d="M182.857 315V346.5H146.286V315H182.857ZM146.786 346H182.357V315.5H146.786V346Z" fill="#235347"/>
<path d="M219.428 315V346.5H182.857V315H219.428ZM183.357 346H218.928V315.5H183.357V346Z" fill="#235347"/>
<path d="M256 315V346.5H219.428V315H256ZM219.929 346H255.5V315.5H219.929V346Z" fill="#235347"/>
<path d="M36.5714 346.5V378H0V346.5H36.5714ZM0.500002 377.5H36.0714V347H0.500002V377.5Z" fill="#235347"/>
<path d="M73.1427 346.5V378H36.5714V346.5H73.1427ZM37.0713 377.5H72.6427V347H37.0713V377.5Z" fill="#235347"/>
<path d="M109.714 346.5V378H73.1427V346.5H109.714ZM73.6431 377.5H109.214V347H73.6431V377.5Z" fill="#235347"/>
<path d="M146.286 346.5V378H109.714V346.5H146.286ZM110.214 377.5H145.786V347H110.214V377.5Z" fill="#235347"/>
<path d="M182.857 346.5V378H146.286V346.5H182.857ZM146.786 377.5H182.357V347H146.786V377.5Z" fill="#235347"/>
<path d="M219.428 346.5V378H182.857V346.5H219.428ZM183.357 377.5H218.928V347H183.357V377.5Z" fill="#235347"/>
<path d="M256 346.5V378H219.428V346.5H256ZM219.929 377.5H255.5V347H219.929V377.5Z" fill="#235347"/>
<path d="M36.5714 378V409.5H0V378H36.5714ZM0.500002 409H36.0714V378.5H0.500002V409Z" fill="#235347"/>
<path d="M73.1427 378V409.5H36.5714V378H73.1427ZM37.0713 409H72.6427V378.5H37.0713V409Z" fill="#235347"/>
<path d="M109.714 378V409.5H73.1427V378H109.714ZM73.6431 409H109.214V378.5H73.6431V409Z" fill="#235347"/>
<path d="M146.286 378V409.5H109.714V378H146.286ZM110.214 409H145.786V378.5H110.214V409Z" fill="#235347"/>
<path d="M182.857 378V409.5H146.286V378H182.857ZM146.786 409H182.357V378.5H146.786V409Z" fill="#235347"/>
<path d="M219.428 378V409.5H182.857V378H219.428ZM183.357 409H218.928V378.5H183.357V409Z" fill="#235347"/>
<path d="M256 378V409.5H219.428V378H256ZM219.929 409H255.5V378.5H219.929V409Z" fill="#235347"/>
<path d="M36.5714 409.5V441H0V409.5H36.5714ZM0.500002 440.5H36.0714V410H0.500002V440.5Z" fill="#235347"/>
<path d="M73.1427 409.5V441H36.5714V409.5H73.1427ZM37.0713 440.5H72.6427V410H37.0713V440.5Z" fill="#235347"/>
<path d="M109.714 409.5V441H73.1427V409.5H109.714ZM73.6431 440.5H109.214V410H73.6431V440.5Z" fill="#235347"/>
<path d="M146.286 409.5V441H109.714V409.5H146.286ZM110.214 440.5H145.786V410H110.214V440.5Z" fill="#235347"/>
<path d="M182.857 409.5V441H146.286V409.5H182.857ZM146.786 440.5H182.357V410H146.786V440.5Z" fill="#235347"/>
<path d="M219.428 409.5V441H182.857V409.5H219.428ZM183.357 440.5H218.928V410H183.357V440.5Z" fill="#235347"/>
<path d="M256 409.5V441H219.428V409.5H256ZM219.929 440.5H255.5V410H219.929V440.5Z" fill="#235347"/>
<path d="M36.5714 441V472.5H0V441H36.5714ZM0.500002 472H36.0714V441.5H0.500002V472Z" fill="#235347"/>
<path d="M73.1427 441V472.5H36.5714V441H73.1427ZM37.0713 472H72.6427V441.5H37.0713V472Z" fill="#235347"/>
<path d="M109.714 441V472.5H73.1427V441H109.714ZM73.6431 472H109.214V441.5H73.6431V472Z" fill="#235347"/>
<path d="M146.286 441V472.5H109.714V441H146.286ZM110.214 472H145.786V441.5H110.214V472Z" fill="#235347"/>
<path d="M182.857 441V472.5H146.286V441H182.857ZM146.786 472H182.357V441.5H146.786V472Z" fill="#235347"/>
<path d="M219.428 441V472.5H182.857V441H219.428ZM183.357 472H218.928V441.5H183.357V472Z" fill="#235347"/>
<path d="M256 441V472.5H219.428V441H256ZM219.929 472H255.5V441.5H219.929V472Z" fill="#235347"/>
<path d="M36.5714 472.5V504H0V472.5H36.5714ZM0.500002 503.5H36.0714V473H0.500002V503.5Z" fill="#235347"/>
<path d="M73.1427 472.5V504H36.5714V472.5H73.1427ZM37.0713 503.5H72.6427V473H37.0713V503.5Z" fill="#235347"/>
<path d="M109.714 472.5V504H73.1427V472.5H109.714ZM73.6431 503.5H109.214V473H73.6431V503.5Z" fill="#235347"/>
<path d="M146.286 472.5V504H109.714V472.5H146.286ZM110.214 503.5H145.786V473H110.214V503.5Z" fill="#235347"/>
<path d="M182.857 472.5V504H146.286V472.5H182.857ZM146.786 503.5H182.357V473H146.786V503.5Z" fill="#235347"/>
<path d="M219.428 472.5V504H182.857V472.5H219.428ZM183.357 503.5H218.928V473H183.357V503.5Z" fill="#235347"/>
<path d="M256 472.5V504H219.428V472.5H256ZM219.929 503.5H255.5V473H219.929V503.5Z" fill="#235347"/>
<path d="M36.5714 504V535.5H0V504H36.5714ZM0.500002 535H36.0714V504.5H0.500002V535Z" fill="#235347"/>
<path d="M73.1427 504V535.5H36.5714V504H73.1427ZM37.0713 535H72.6427V504.5H37.0713V535Z" fill="#235347"/>
<path d="M109.714 504V535.5H73.1427V504H109.714ZM73.6431 535H109.214V504.5H73.6431V535Z" fill="#235347"/>
<path d="M146.286 504V535.5H109.714V504H146.286ZM110.214 535H145.786V504.5H110.214V535Z" fill="#235347"/>
<path d="M182.857 504V535.5H146.286V504H182.857ZM146.786 535H182.357V504.5H146.786V535Z" fill="#235347"/>
<path d="M219.428 504V535.5H182.857V504H219.428ZM183.357 535H218.928V504.5H183.357V535Z" fill="#235347"/>
<path d="M256 504V535.5H219.428V504H256ZM219.929 535H255.5V504.5H219.929V535Z" fill="#235347"/>
<path d="M36.5714 535.5V567H0V535.5H36.5714ZM0.500002 566.5H36.0714V536H0.500002V566.5Z" fill="#235347"/>
<path d="M73.1427 535.5V567H36.5714V535.5H73.1427ZM37.0713 566.5H72.6427V536H37.0713V566.5Z" fill="#235347"/>
<path d="M109.714 535.5V567H73.1427V535.5H109.714ZM73.6431 566.5H109.214V536H73.6431V566.5Z" fill="#235347"/>
<path d="M146.286 535.5V567H109.714V535.5H146.286ZM110.214 566.5H145.786V536H110.214V566.5Z" fill="#235347"/>
<path d="M182.857 535.5V567H146.286V535.5H182.857ZM146.786 566.5H182.357V536H146.786V566.5Z" fill="#235347"/>
<path d="M219.428 535.5V567H182.857V535.5H219.428ZM183.357 566.5H218.928V536H183.357V566.5Z" fill="#235347"/>
<path d="M256 535.5V567H219.428V535.5H256ZM219.929 566.5H255.5V536H219.929V566.5Z" fill="#235347"/>
<path d="M36.5714 567V598.5H0V567H36.5714ZM0.500002 598H36.0714V567.5H0.500002V598Z" fill="#235347"/>
<path d="M73.1427 567V598.5H36.5714V567H73.1427ZM37.0713 598H72.6427V567.5H37.0713V598Z" fill="#235347"/>
<path d="M109.714 567V598.5H73.1427V567H109.714ZM73.6431 598H109.214V567.5H73.6431V598Z" fill="#235347"/>
<path d="M146.286 567V598.5H109.714V567H146.286ZM110.214 598H145.786V567.5H110.214V598Z" fill="#235347"/>
<path d="M182.857 567V598.5H146.286V567H182.857ZM146.786 598H182.357V567.5H146.786V598Z" fill="#235347"/>
<path d="M219.428 567V598.5H182.857V567H219.428ZM183.357 598H218.928V567.5H183.357V598Z" fill="#235347"/>
<path d="M256 567V598.5H219.428V567H256ZM219.929 598H255.5V567.5H219.929V598Z" fill="#235347"/>
<path d="M36.5714 598.5V630H0V598.5H36.5714ZM0.500002 629.5H36.0714V599H0.500002V629.5Z" fill="#235347"/>
<path d="M73.1427 598.5V630H36.5714V598.5H73.1427ZM37.0713 629.5H72.6427V599H37.0713V629.5Z" fill="#235347"/>
<path d="M109.714 598.5V630H73.1427V598.5H109.714ZM73.6431 629.5H109.214V599H73.6431V629.5Z" fill="#235347"/>
<path d="M146.286 598.5V630H109.714V598.5H146.286ZM110.214 629.5H145.786V599H110.214V629.5Z" fill="#235347"/>
<path d="M182.857 598.5V630H146.286V598.5H182.857ZM146.786 629.5H182.357V599H146.786V629.5Z" fill="#235347"/>
<path d="M219.428 598.5V630H182.857V598.5H219.428ZM183.357 629.5H218.928V599H183.357V629.5Z" fill="#235347"/>
<path d="M256 598.5V630H219.428V598.5H256ZM219.929 629.5H255.5V599H219.929V629.5Z" fill="#235347"/>
<path d="M36.5714 630V661.5H0V630H36.5714ZM0.500002 661H36.0714V630.5H0.500002V661Z" fill="#235347"/>
<path d="M73.1427 630V661.5H36.5714V630H73.1427ZM37.0713 661H72.6427V630.5H37.0713V661Z" fill="#235347"/>
<path d="M109.714 630V661.5H73.1427V630H109.714ZM73.6431 661H109.214V630.5H73.6431V661Z" fill="#235347"/>
<path d="M146.286 630V661.5H109.714V630H146.286ZM110.214 661H145.786V630.5H110.214V661Z" fill="#235347"/>
<path d="M182.857 630V661.5H146.286V630H182.857ZM146.786 661H182.357V630.5H146.786V661Z" fill="#235347"/>
<path d="M219.428 630V661.5H182.857V630H219.428ZM183.357 661H218.928V630.5H183.357V661Z" fill="#235347"/>
<path d="M256 630V661.5H219.428V630H256ZM219.929 661H255.5V630.5H219.929V661Z" fill="#235347"/>
<path d="M36.5714 661.5V693H0V661.5H36.5714ZM0.500002 692.5H36.0714V662H0.500002V692.5Z" fill="#235347"/>
<path d="M73.1427 661.5V693H36.5714V661.5H73.1427ZM37.0713 692.5H72.6427V662H37.0713V692.5Z" fill="#235347"/>
<path d="M109.714 661.5V693H73.1427V661.5H109.714ZM73.6431 692.5H109.214V662H73.6431V692.5Z" fill="#235347"/>
<path d="M146.286 661.5V693H109.714V661.5H146.286ZM110.214 692.5H145.786V662H110.214V692.5Z" fill="#235347"/>
<path d="M182.857 661.5V693H146.286V661.5H182.857ZM146.786 692.5H182.357V662H146.786V692.5Z" fill="#235347"/>
<path d="M219.428 661.5V693H182.857V661.5H219.428ZM183.357 692.5H218.928V662H183.357V692.5Z" fill="#235347"/>
<path d="M256 661.5V693H219.428V661.5H256ZM219.929 692.5H255.5V662H219.929V692.5Z" fill="#235347"/>
<path d="M292.571 0V31.5H256V0H292.571ZM256.5 31H292.071V0.5H256.5V31Z" fill="#235347"/>
<path d="M329.143 0V31.5H292.571V0H329.143ZM293.071 31H328.643V0.5H293.071V31Z" fill="#235347"/>
<path d="M365.715 0V31.5H329.143V0H365.715ZM329.643 31H365.214V0.5H329.643V31Z" fill="#235347"/>
<path d="M402.286 0V31.5H365.715V0H402.286ZM366.214 31H401.786V0.5H366.214V31Z" fill="#235347"/>
<path d="M438.857 0V31.5H402.286V0H438.857ZM402.786 31H438.357V0.5H402.786V31Z" fill="#235347"/>
<path d="M475.428 0V31.5H438.857V0H475.428ZM439.357 31H474.928V0.5H439.357V31Z" fill="#235347"/>
<path d="M512 0V31.5H475.428V0H512ZM475.929 31H511.5V0.5H475.929V31Z" fill="#235347"/>
<path d="M292.571 31.5V63H256V31.5H292.571ZM256.5 62.5H292.071V32H256.5V62.5Z" fill="#235347"/>
<path d="M329.143 31.5V63H292.571V31.5H329.143ZM293.071 62.5H328.643V32H293.071V62.5Z" fill="#235347"/>
<path d="M365.715 31.5V63H329.143V31.5H365.715ZM329.643 62.5H365.214V32H329.643V62.5Z" fill="#235347"/>
<path d="M402.286 31.5V63H365.715V31.5H402.286ZM366.214 62.5H401.786V32H366.214V62.5Z" fill="#235347"/>
<path d="M438.857 31.5V63H402.286V31.5H438.857ZM402.786 62.5H438.357V32H402.786V62.5Z" fill="#235347"/>
<path d="M475.428 31.5V63H438.857V31.5H475.428ZM439.357 62.5H474.928V32H439.357V62.5Z" fill="#235347"/>
<path d="M512 31.5V63H475.428V31.5H512ZM475.929 62.5H511.5V32H475.929V62.5Z" fill="#235347"/>
<path d="M292.571 63V94.5H256V63H292.571ZM256.5 94H292.071V63.5H256.5V94Z" fill="#235347"/>
<path d="M329.143 63V94.5H292.571V63H329.143ZM293.071 94H328.643V63.5H293.071V94Z" fill="#235347"/>
<path d="M365.715 63V94.5H329.143V63H365.715ZM329.643 94H365.214V63.5H329.643V94Z" fill="#235347"/>
<path d="M402.286 63V94.5H365.715V63H402.286ZM366.214 94H401.786V63.5H366.214V94Z" fill="#235347"/>
<path d="M438.857 63V94.5H402.286V63H438.857ZM402.786 94H438.357V63.5H402.786V94Z" fill="#235347"/>
<path d="M475.428 63V94.5H438.857V63H475.428ZM439.357 94H474.928V63.5H439.357V94Z" fill="#235347"/>
<path d="M512 63V94.5H475.428V63H512ZM475.929 94H511.5V63.5H475.929V94Z" fill="#235347"/>
<path d="M292.571 94.5V126H256V94.5H292.571ZM256.5 125.5H292.071V95H256.5V125.5Z" fill="#235347"/>
<path d="M329.143 94.5V126H292.571V94.5H329.143ZM293.071 125.5H328.643V95H293.071V125.5Z" fill="#235347"/>
<path d="M365.715 94.5V126H329.143V94.5H365.715ZM329.643 125.5H365.214V95H329.643V125.5Z" fill="#235347"/>
<path d="M402.286 94.5V126H365.715V94.5H402.286ZM366.214 125.5H401.786V95H366.214V125.5Z" fill="#235347"/>
<path d="M438.857 94.5V126H402.286V94.5H438.857ZM402.786 125.5H438.357V95H402.786V125.5Z" fill="#235347"/>
<path d="M475.428 94.5V126H438.857V94.5H475.428ZM439.357 125.5H474.928V95H439.357V125.5Z" fill="#235347"/>
<path d="M512 94.5V126H475.428V94.5H512ZM475.929 125.5H511.5V95H475.929V125.5Z" fill="#235347"/>
<path d="M292.571 126V157.5H256V126H292.571ZM256.5 157H292.071V126.5H256.5V157Z" fill="#235347"/>
<path d="M329.143 126V157.5H292.571V126H329.143ZM293.071 157H328.643V126.5H293.071V157Z" fill="#235347"/>
<path d="M365.715 126V157.5H329.143V126H365.715ZM329.643 157H365.214V126.5H329.643V157Z" fill="#235347"/>
<path d="M402.286 126V157.5H365.715V126H402.286ZM366.214 157H401.786V126.5H366.214V157Z" fill="#235347"/>
<path d="M438.857 126V157.5H402.286V126H438.857ZM402.786 157H438.357V126.5H402.786V157Z" fill="#235347"/>
<path d="M475.428 126V157.5H438.857V126H475.428ZM439.357 157H474.928V126.5H439.357V157Z" fill="#235347"/>
<path d="M512 126V157.5H475.428V126H512ZM475.929 157H511.5V126.5H475.929V157Z" fill="#235347"/>
<path d="M292.571 157.5V189H256V157.5H292.571ZM256.5 188.5H292.071V158H256.5V188.5Z" fill="#235347"/>
<path d="M329.143 157.5V189H292.571V157.5H329.143ZM293.071 188.5H328.643V158H293.071V188.5Z" fill="#235347"/>
<path d="M365.715 157.5V189H329.143V157.5H365.715ZM329.643 188.5H365.214V158H329.643V188.5Z" fill="#235347"/>
<path d="M402.286 157.5V189H365.715V157.5H402.286ZM366.214 188.5H401.786V158H366.214V188.5Z" fill="#235347"/>
<path d="M438.857 157.5V189H402.286V157.5H438.857ZM402.786 188.5H438.357V158H402.786V188.5Z" fill="#235347"/>
<path d="M475.428 157.5V189H438.857V157.5H475.428ZM439.357 188.5H474.928V158H439.357V188.5Z" fill="#235347"/>
<path d="M512 157.5V189H475.428V157.5H512ZM475.929 188.5H511.5V158H475.929V188.5Z" fill="#235347"/>
<path d="M292.571 189V220.5H256V189H292.571ZM256.5 220H292.071V189.5H256.5V220Z" fill="#235347"/>
<path d="M329.143 189V220.5H292.571V189H329.143ZM293.071 220H328.643V189.5H293.071V220Z" fill="#235347"/>
<path d="M365.715 189V220.5H329.143V189H365.715ZM329.643 220H365.214V189.5H329.643V220Z" fill="#235347"/>
<path d="M402.286 189V220.5H365.715V189H402.286ZM366.214 220H401.786V189.5H366.214V220Z" fill="#235347"/>
<path d="M438.857 189V220.5H402.286V189H438.857ZM402.786 220H438.357V189.5H402.786V220Z" fill="#235347"/>
<path d="M475.428 189V220.5H438.857V189H475.428ZM439.357 220H474.928V189.5H439.357V220Z" fill="#235347"/>
<path d="M512 189V220.5H475.428V189H512ZM475.929 220H511.5V189.5H475.929V220Z" fill="#235347"/>
<path d="M292.571 220.5V252H256V220.5H292.571ZM256.5 251.5H292.071V221H256.5V251.5Z" fill="#235347"/>
<path d="M329.143 220.5V252H292.571V220.5H329.143ZM293.071 251.5H328.643V221H293.071V251.5Z" fill="#235347"/>
<path d="M365.715 220.5V252H329.143V220.5H365.715ZM329.643 251.5H365.214V221H329.643V251.5Z" fill="#235347"/>
<path d="M402.286 220.5V252H365.715V220.5H402.286ZM366.214 251.5H401.786V221H366.214V251.5Z" fill="#235347"/>
<path d="M438.857 220.5V252H402.286V220.5H438.857ZM402.786 251.5H438.357V221H402.786V251.5Z" fill="#235347"/>
<path d="M475.428 220.5V252H438.857V220.5H475.428ZM439.357 251.5H474.928V221H439.357V251.5Z" fill="#235347"/>
<path d="M512 220.5V252H475.428V220.5H512ZM475.929 251.5H511.5V221H475.929V251.5Z" fill="#235347"/>
<path d="M292.571 252V283.5H256V252H292.571ZM256.5 283H292.071V252.5H256.5V283Z" fill="#235347"/>
<path d="M329.143 252V283.5H292.571V252H329.143ZM293.071 283H328.643V252.5H293.071V283Z" fill="#235347"/>
<path d="M365.715 252V283.5H329.143V252H365.715ZM329.643 283H365.214V252.5H329.643V283Z" fill="#235347"/>
<path d="M402.286 252V283.5H365.715V252H402.286ZM366.214 283H401.786V252.5H366.214V283Z" fill="#235347"/>
<path d="M438.857 252V283.5H402.286V252H438.857ZM402.786 283H438.357V252.5H402.786V283Z" fill="#235347"/>
<path d="M475.428 252V283.5H438.857V252H475.428ZM439.357 283H474.928V252.5H439.357V283Z" fill="#235347"/>
<path d="M512 252V283.5H475.428V252H512ZM475.929 283H511.5V252.5H475.929V283Z" fill="#235347"/>
<path d="M292.571 283.5V315H256V283.5H292.571ZM256.5 314.5H292.071V284H256.5V314.5Z" fill="#235347"/>
<path d="M329.143 283.5V315H292.571V283.5H329.143ZM293.071 314.5H328.643V284H293.071V314.5Z" fill="#235347"/>
<path d="M365.715 283.5V315H329.143V283.5H365.715ZM329.643 314.5H365.214V284H329.643V314.5Z" fill="#235347"/>
<path d="M402.286 283.5V315H365.715V283.5H402.286ZM366.214 314.5H401.786V284H366.214V314.5Z" fill="#235347"/>
<path d="M438.857 283.5V315H402.286V283.5H438.857ZM402.786 314.5H438.357V284H402.786V314.5Z" fill="#235347"/>
<path d="M475.428 283.5V315H438.857V283.5H475.428ZM439.357 314.5H474.928V284H439.357V314.5Z" fill="#235347"/>
<path d="M512 283.5V315H475.428V283.5H512ZM475.929 314.5H511.5V284H475.929V314.5Z" fill="#235347"/>
<path d="M292.571 315V346.5H256V315H292.571ZM256.5 346H292.071V315.5H256.5V346Z" fill="#235347"/>
<path d="M329.143 315V346.5H292.571V315H329.143ZM293.071 346H328.643V315.5H293.071V346Z" fill="#235347"/>
<path d="M365.715 315V346.5H329.143V315H365.715ZM329.643 346H365.214V315.5H329.643V346Z" fill="#235347"/>
<path d="M402.286 315V346.5H365.715V315H402.286ZM366.214 346H401.786V315.5H366.214V346Z" fill="#235347"/>
<path d="M438.857 315V346.5H402.286V315H438.857ZM402.786 346H438.357V315.5H402.786V346Z" fill="#235347"/>
<path d="M475.428 315V346.5H438.857V315H475.428ZM439.357 346H474.928V315.5H439.357V346Z" fill="#235347"/>
<path d="M512 315V346.5H475.428V315H512ZM475.929 346H511.5V315.5H475.929V346Z" fill="#235347"/>
<path d="M292.571 346.5V378H256V346.5H292.571ZM256.5 377.5H292.071V347H256.5V377.5Z" fill="#235347"/>
<path d="M329.143 346.5V378H292.571V346.5H329.143ZM293.071 377.5H328.643V347H293.071V377.5Z" fill="#235347"/>
<path d="M365.715 346.5V378H329.143V346.5H365.715ZM329.643 377.5H365.214V347H329.643V377.5Z" fill="#235347"/>
<path d="M402.286 346.5V378H365.715V346.5H402.286ZM366.214 377.5H401.786V347H366.214V377.5Z" fill="#235347"/>
<path d="M438.857 346.5V378H402.286V346.5H438.857ZM402.786 377.5H438.357V347H402.786V377.5Z" fill="#235347"/>
<path d="M475.428 346.5V378H438.857V346.5H475.428ZM439.357 377.5H474.928V347H439.357V377.5Z" fill="#235347"/>
<path d="M512 346.5V378H475.428V346.5H512ZM475.929 377.5H511.5V347H475.929V377.5Z" fill="#235347"/>
<path d="M292.571 378V409.5H256V378H292.571ZM256.5 409H292.071V378.5H256.5V409Z" fill="#235347"/>
<path d="M329.143 378V409.5H292.571V378H329.143ZM293.071 409H328.643V378.5H293.071V409Z" fill="#235347"/>
<path d="M365.715 378V409.5H329.143V378H365.715ZM329.643 409H365.214V378.5H329.643V409Z" fill="#235347"/>
<path d="M402.286 378V409.5H365.715V378H402.286ZM366.214 409H401.786V378.5H366.214V409Z" fill="#235347"/>
<path d="M438.857 378V409.5H402.286V378H438.857ZM402.786 409H438.357V378.5H402.786V409Z" fill="#235347"/>
<path d="M475.428 378V409.5H438.857V378H475.428ZM439.357 409H474.928V378.5H439.357V409Z" fill="#235347"/>
<path d="M512 378V409.5H475.428V378H512ZM475.929 409H511.5V378.5H475.929V409Z" fill="#235347"/>
<path d="M292.571 409.5V441H256V409.5H292.571ZM256.5 440.5H292.071V410H256.5V440.5Z" fill="#235347"/>
<path d="M329.143 409.5V441H292.571V409.5H329.143ZM293.071 440.5H328.643V410H293.071V440.5Z" fill="#235347"/>
<path d="M365.715 409.5V441H329.143V409.5H365.715ZM329.643 440.5H365.214V410H329.643V440.5Z" fill="#235347"/>
<path d="M402.286 409.5V441H365.715V409.5H402.286ZM366.214 440.5H401.786V410H366.214V440.5Z" fill="#235347"/>
<path d="M438.857 409.5V441H402.286V409.5H438.857ZM402.786 440.5H438.357V410H402.786V440.5Z" fill="#235347"/>
<path d="M475.428 409.5V441H438.857V409.5H475.428ZM439.357 440.5H474.928V410H439.357V440.5Z" fill="#235347"/>
<path d="M512 409.5V441H475.428V409.5H512ZM475.929 440.5H511.5V410H475.929V440.5Z" fill="#235347"/>
<path d="M292.571 441V472.5H256V441H292.571ZM256.5 472H292.071V441.5H256.5V472Z" fill="#235347"/>
<path d="M329.143 441V472.5H292.571V441H329.143ZM293.071 472H328.643V441.5H293.071V472Z" fill="#235347"/>
<path d="M365.715 441V472.5H329.143V441H365.715ZM329.643 472H365.214V441.5H329.643V472Z" fill="#235347"/>
<path d="M402.286 441V472.5H365.715V441H402.286ZM366.214 472H401.786V441.5H366.214V472Z" fill="#235347"/>
<path d="M438.857 441V472.5H402.286V441H438.857ZM402.786 472H438.357V441.5H402.786V472Z" fill="#235347"/>
<path d="M475.428 441V472.5H438.857V441H475.428ZM439.357 472H474.928V441.5H439.357V472Z" fill="#235347"/>
<path d="M512 441V472.5H475.428V441H512ZM475.929 472H511.5V441.5H475.929V472Z" fill="#235347"/>
<path d="M292.571 472.5V504H256V472.5H292.571ZM256.5 503.5H292.071V473H256.5V503.5Z" fill="#235347"/>
<path d="M329.143 472.5V504H292.571V472.5H329.143ZM293.071 503.5H328.643V473H293.071V503.5Z" fill="#235347"/>
<path d="M365.715 472.5V504H329.143V472.5H365.715ZM329.643 503.5H365.214V473H329.643V503.5Z" fill="#235347"/>
<path d="M402.286 472.5V504H365.715V472.5H402.286ZM366.214 503.5H401.786V473H366.214V503.5Z" fill="#235347"/>
<path d="M438.857 472.5V504H402.286V472.5H438.857ZM402.786 503.5H438.357V473H402.786V503.5Z" fill="#235347"/>
<path d="M475.428 472.5V504H438.857V472.5H475.428ZM439.357 503.5H474.928V473H439.357V503.5Z" fill="#235347"/>
<path d="M512 472.5V504H475.428V472.5H512ZM475.929 503.5H511.5V473H475.929V503.5Z" fill="#235347"/>
<path d="M292.571 504V535.5H256V504H292.571ZM256.5 535H292.071V504.5H256.5V535Z" fill="#235347"/>
<path d="M329.143 504V535.5H292.571V504H329.143ZM293.071 535H328.643V504.5H293.071V535Z" fill="#235347"/>
<path d="M365.715 504V535.5H329.143V504H365.715ZM329.643 535H365.214V504.5H329.643V535Z" fill="#235347"/>
<path d="M402.286 504V535.5H365.715V504H402.286ZM366.214 535H401.786V504.5H366.214V535Z" fill="#235347"/>
<path d="M438.857 504V535.5H402.286V504H438.857ZM402.786 535H438.357V504.5H402.786V535Z" fill="#235347"/>
<path d="M475.428 504V535.5H438.857V504H475.428ZM439.357 535H474.928V504.5H439.357V535Z" fill="#235347"/>
<path d="M512 504V535.5H475.428V504H512ZM475.929 535H511.5V504.5H475.929V535Z" fill="#235347"/>
<path d="M292.571 535.5V567H256V535.5H292.571ZM256.5 566.5H292.071V536H256.5V566.5Z" fill="#235347"/>
<path d="M329.143 535.5V567H292.571V535.5H329.143ZM293.071 566.5H328.643V536H293.071V566.5Z" fill="#235347"/>
<path d="M365.715 535.5V567H329.143V535.5H365.715ZM329.643 566.5H365.214V536H329.643V566.5Z" fill="#235347"/>
<path d="M402.286 535.5V567H365.715V535.5H402.286ZM366.214 566.5H401.786V536H366.214V566.5Z" fill="#235347"/>
<path d="M438.857 535.5V567H402.286V535.5H438.857ZM402.786 566.5H438.357V536H402.786V566.5Z" fill="#235347"/>
<path d="M475.428 535.5V567H438.857V535.5H475.428ZM439.357 566.5H474.928V536H439.357V566.5Z" fill="#235347"/>
<path d="M512 535.5V567H475.428V535.5H512ZM475.929 566.5H511.5V536H475.929V566.5Z" fill="#235347"/>
<path d="M292.571 567V598.5H256V567H292.571ZM256.5 598H292.071V567.5H256.5V598Z" fill="#235347"/>
<path d="M329.143 567V598.5H292.571V567H329.143ZM293.071 598H328.643V567.5H293.071V598Z" fill="#235347"/>
<path d="M365.715 567V598.5H329.143V567H365.715ZM329.643 598H365.214V567.5H329.643V598Z" fill="#235347"/>
<path d="M402.286 567V598.5H365.715V567H402.286ZM366.214 598H401.786V567.5H366.214V598Z" fill="#235347"/>
<path d="M438.857 567V598.5H402.286V567H438.857ZM402.786 598H438.357V567.5H402.786V598Z" fill="#235347"/>
<path d="M475.428 567V598.5H438.857V567H475.428ZM439.357 598H474.928V567.5H439.357V598Z" fill="#235347"/>
<path d="M512 567V598.5H475.428V567H512ZM475.929 598H511.5V567.5H475.929V598Z" fill="#235347"/>
<path d="M292.571 598.5V630H256V598.5H292.571ZM256.5 629.5H292.071V599H256.5V629.5Z" fill="#235347"/>
<path d="M329.143 598.5V630H292.571V598.5H329.143ZM293.071 629.5H328.643V599H293.071V629.5Z" fill="#235347"/>
<path d="M365.715 598.5V630H329.143V598.5H365.715ZM329.643 629.5H365.214V599H329.643V629.5Z" fill="#235347"/>
<path d="M402.286 598.5V630H365.715V598.5H402.286ZM366.214 629.5H401.786V599H366.214V629.5Z" fill="#235347"/>
<path d="M438.857 598.5V630H402.286V598.5H438.857ZM402.786 629.5H438.357V599H402.786V629.5Z" fill="#235347"/>
<path d="M475.428 598.5V630H438.857V598.5H475.428ZM439.357 629.5H474.928V599H439.357V629.5Z" fill="#235347"/>
<path d="M512 598.5V630H475.428V598.5H512ZM475.929 629.5H511.5V599H475.929V629.5Z" fill="#235347"/>
<path d="M292.571 630V661.5H256V630H292.571ZM256.5 661H292.071V630.5H256.5V661Z" fill="#235347"/>
<path d="M329.143 630V661.5H292.571V630H329.143ZM293.071 661H328.643V630.5H293.071V661Z" fill="#235347"/>
<path d="M365.715 630V661.5H329.143V630H365.715ZM329.643 661H365.214V630.5H329.643V661Z" fill="#235347"/>
<path d="M402.286 630V661.5H365.715V630H402.286ZM366.214 661H401.786V630.5H366.214V661Z" fill="#235347"/>
<path d="M438.857 630V661.5H402.286V630H438.857ZM402.786 661H438.357V630.5H402.786V661Z" fill="#235347"/>
<path d="M475.428 630V661.5H438.857V630H475.428ZM439.357 661H474.928V630.5H439.357V661Z" fill="#235347"/>
<path d="M512 630V661.5H475.428V630H512ZM475.929 661H511.5V630.5H475.929V661Z" fill="#235347"/>
<path d="M292.571 661.5V693H256V661.5H292.571ZM256.5 692.5H292.071V662H256.5V692.5Z" fill="#235347"/>
<path d="M329.143 661.5V693H292.571V661.5H329.143ZM293.071 692.5H328.643V662H293.071V692.5Z" fill="#235347"/>
<path d="M365.715 661.5V693H329.143V661.5H365.715ZM329.643 692.5H365.214V662H329.643V692.5Z" fill="#235347"/>
<path d="M402.286 661.5V693H365.715V661.5H402.286ZM366.214 692.5H401.786V662H366.214V692.5Z" fill="#235347"/>
<path d="M438.857 661.5V693H402.286V661.5H438.857ZM402.786 692.5H438.357V662H402.786V692.5Z" fill="#235347"/>
<path d="M475.428 661.5V693H438.857V661.5H475.428ZM439.357 692.5H474.928V662H439.357V692.5Z" fill="#235347"/>
<path d="M512 661.5V693H475.428V661.5H512ZM475.929 692.5H511.5V662H475.929V692.5Z" fill="#235347"/>
<path d="M548.714 0V31.5H512V0H548.714ZM512.5 31H548.214V0.5H512.5V31Z" fill="#235347"/>
<path d="M585.428 0V31.5H548.714V0H585.428ZM549.214 31H584.928V0.5H549.214V31Z" fill="#235347"/>
<path d="M622.143 0V31.5H585.428V0H622.143ZM585.929 31H621.643V0.5H585.929V31Z" fill="#235347"/>
<path d="M658.857 0V31.5H622.143V0H658.857ZM622.643 31H658.357V0.5H622.643V31Z" fill="#235347"/>
<path d="M695.571 0V31.5H658.857V0H695.571ZM659.357 31H695.071V0.5H659.357V31Z" fill="#235347"/>
<path d="M732.285 0V31.5H695.571V0H732.285ZM696.071 31H731.785V0.5H696.071V31Z" fill="#235347"/>
<path d="M769 0V31.5H732.285V0H769ZM732.786 31H768.5V0.5H732.786V31Z" fill="#235347"/>
<path d="M548.714 31.5V63H512V31.5H548.714ZM512.5 62.5H548.214V32H512.5V62.5Z" fill="#235347"/>
<path d="M585.428 31.5V63H548.714V31.5H585.428ZM549.214 62.5H584.928V32H549.214V62.5Z" fill="#235347"/>
<path d="M622.143 31.5V63H585.428V31.5H622.143ZM585.929 62.5H621.643V32H585.929V62.5Z" fill="#235347"/>
<path d="M658.857 31.5V63H622.143V31.5H658.857ZM622.643 62.5H658.357V32H622.643V62.5Z" fill="#235347"/>
<path d="M695.571 31.5V63H658.857V31.5H695.571ZM659.357 62.5H695.071V32H659.357V62.5Z" fill="#235347"/>
<path d="M732.285 31.5V63H695.571V31.5H732.285ZM696.071 62.5H731.785V32H696.071V62.5Z" fill="#235347"/>
<path d="M769 31.5V63H732.285V31.5H769ZM732.786 62.5H768.5V32H732.786V62.5Z" fill="#235347"/>
<path d="M548.714 63V94.5H512V63H548.714ZM512.5 94H548.214V63.5H512.5V94Z" fill="#235347"/>
<path d="M585.428 63V94.5H548.714V63H585.428ZM549.214 94H584.928V63.5H549.214V94Z" fill="#235347"/>
<path d="M622.143 63V94.5H585.428V63H622.143ZM585.929 94H621.643V63.5H585.929V94Z" fill="#235347"/>
<path d="M658.857 63V94.5H622.143V63H658.857ZM622.643 94H658.357V63.5H622.643V94Z" fill="#235347"/>
<path d="M695.571 63V94.5H658.857V63H695.571ZM659.357 94H695.071V63.5H659.357V94Z" fill="#235347"/>
<path d="M732.285 63V94.5H695.571V63H732.285ZM696.071 94H731.785V63.5H696.071V94Z" fill="#235347"/>
<path d="M769 63V94.5H732.285V63H769ZM732.786 94H768.5V63.5H732.786V94Z" fill="#235347"/>
<path d="M548.714 94.5V126H512V94.5H548.714ZM512.5 125.5H548.214V95H512.5V125.5Z" fill="#235347"/>
<path d="M585.428 94.5V126H548.714V94.5H585.428ZM549.214 125.5H584.928V95H549.214V125.5Z" fill="#235347"/>
<path d="M622.143 94.5V126H585.428V94.5H622.143ZM585.929 125.5H621.643V95H585.929V125.5Z" fill="#235347"/>
<path d="M658.857 94.5V126H622.143V94.5H658.857ZM622.643 125.5H658.357V95H622.643V125.5Z" fill="#235347"/>
<path d="M695.571 94.5V126H658.857V94.5H695.571ZM659.357 125.5H695.071V95H659.357V125.5Z" fill="#235347"/>
<path d="M732.285 94.5V126H695.571V94.5H732.285ZM696.071 125.5H731.785V95H696.071V125.5Z" fill="#235347"/>
<path d="M769 94.5V126H732.285V94.5H769ZM732.786 125.5H768.5V95H732.786V125.5Z" fill="#235347"/>
<path d="M548.714 126V157.5H512V126H548.714ZM512.5 157H548.214V126.5H512.5V157Z" fill="#235347"/>
<path d="M585.428 126V157.5H548.714V126H585.428ZM549.214 157H584.928V126.5H549.214V157Z" fill="#235347"/>
<path d="M622.143 126V157.5H585.428V126H622.143ZM585.929 157H621.643V126.5H585.929V157Z" fill="#235347"/>
<path d="M658.857 126V157.5H622.143V126H658.857ZM622.643 157H658.357V126.5H622.643V157Z" fill="#235347"/>
<path d="M695.571 126V157.5H658.857V126H695.571ZM659.357 157H695.071V126.5H659.357V157Z" fill="#235347"/>
<path d="M732.285 126V157.5H695.571V126H732.285ZM696.071 157H731.785V126.5H696.071V157Z" fill="#235347"/>
<path d="M769 126V157.5H732.285V126H769ZM732.786 157H768.5V126.5H732.786V157Z" fill="#235347"/>
<path d="M548.714 157.5V189H512V157.5H548.714ZM512.5 188.5H548.214V158H512.5V188.5Z" fill="#235347"/>
<path d="M585.428 157.5V189H548.714V157.5H585.428ZM549.214 188.5H584.928V158H549.214V188.5Z" fill="#235347"/>
<path d="M622.143 157.5V189H585.428V157.5H622.143ZM585.929 188.5H621.643V158H585.929V188.5Z" fill="#235347"/>
<path d="M658.857 157.5V189H622.143V157.5H658.857ZM622.643 188.5H658.357V158H622.643V188.5Z" fill="#235347"/>
<path d="M695.571 157.5V189H658.857V157.5H695.571ZM659.357 188.5H695.071V158H659.357V188.5Z" fill="#235347"/>
<path d="M732.285 157.5V189H695.571V157.5H732.285ZM696.071 188.5H731.785V158H696.071V188.5Z" fill="#235347"/>
<path d="M769 157.5V189H732.285V157.5H769ZM732.786 188.5H768.5V158H732.786V188.5Z" fill="#235347"/>
<path d="M548.714 189V220.5H512V189H548.714ZM512.5 220H548.214V189.5H512.5V220Z" fill="#235347"/>
<path d="M585.428 189V220.5H548.714V189H585.428ZM549.214 220H584.928V189.5H549.214V220Z" fill="#235347"/>
<path d="M622.143 189V220.5H585.428V189H622.143ZM585.929 220H621.643V189.5H585.929V220Z" fill="#235347"/>
<path d="M658.857 189V220.5H622.143V189H658.857ZM622.643 220H658.357V189.5H622.643V220Z" fill="#235347"/>
<path d="M695.571 189V220.5H658.857V189H695.571ZM659.357 220H695.071V189.5H659.357V220Z" fill="#235347"/>
<path d="M732.285 189V220.5H695.571V189H732.285ZM696.071 220H731.785V189.5H696.071V220Z" fill="#235347"/>
<path d="M769 189V220.5H732.285V189H769ZM732.786 220H768.5V189.5H732.786V220Z" fill="#235347"/>
<path d="M548.714 220.5V252H512V220.5H548.714ZM512.5 251.5H548.214V221H512.5V251.5Z" fill="#235347"/>
<path d="M585.428 220.5V252H548.714V220.5H585.428ZM549.214 251.5H584.928V221H549.214V251.5Z" fill="#235347"/>
<path d="M622.143 220.5V252H585.428V220.5H622.143ZM585.929 251.5H621.643V221H585.929V251.5Z" fill="#235347"/>
<path d="M658.857 220.5V252H622.143V220.5H658.857ZM622.643 251.5H658.357V221H622.643V251.5Z" fill="#235347"/>
<path d="M695.571 220.5V252H658.857V220.5H695.571ZM659.357 251.5H695.071V221H659.357V251.5Z" fill="#235347"/>
<path d="M732.285 220.5V252H695.571V220.5H732.285ZM696.071 251.5H731.785V221H696.071V251.5Z" fill="#235347"/>
<path d="M769 220.5V252H732.285V220.5H769ZM732.786 251.5H768.5V221H732.786V251.5Z" fill="#235347"/>
<path d="M548.714 252V283.5H512V252H548.714ZM512.5 283H548.214V252.5H512.5V283Z" fill="#235347"/>
<path d="M585.428 252V283.5H548.714V252H585.428ZM549.214 283H584.928V252.5H549.214V283Z" fill="#235347"/>
<path d="M622.143 252V283.5H585.428V252H622.143ZM585.929 283H621.643V252.5H585.929V283Z" fill="#235347"/>
<path d="M658.857 252V283.5H622.143V252H658.857ZM622.643 283H658.357V252.5H622.643V283Z" fill="#235347"/>
<path d="M695.571 252V283.5H658.857V252H695.571ZM659.357 283H695.071V252.5H659.357V283Z" fill="#235347"/>
<path d="M732.285 252V283.5H695.571V252H732.285ZM696.071 283H731.785V252.5H696.071V283Z" fill="#235347"/>
<path d="M769 252V283.5H732.285V252H769ZM732.786 283H768.5V252.5H732.786V283Z" fill="#235347"/>
<path d="M548.714 283.5V315H512V283.5H548.714ZM512.5 314.5H548.214V284H512.5V314.5Z" fill="#235347"/>
<path d="M585.428 283.5V315H548.714V283.5H585.428ZM549.214 314.5H584.928V284H549.214V314.5Z" fill="#235347"/>
<path d="M622.143 283.5V315H585.428V283.5H622.143ZM585.929 314.5H621.643V284H585.929V314.5Z" fill="#235347"/>
<path d="M658.857 283.5V315H622.143V283.5H658.857ZM622.643 314.5H658.357V284H622.643V314.5Z" fill="#235347"/>
<path d="M695.571 283.5V315H658.857V283.5H695.571ZM659.357 314.5H695.071V284H659.357V314.5Z" fill="#235347"/>
<path d="M732.285 283.5V315H695.571V283.5H732.285ZM696.071 314.5H731.785V284H696.071V314.5Z" fill="#235347"/>
<path d="M769 283.5V315H732.285V283.5H769ZM732.786 314.5H768.5V284H732.786V314.5Z" fill="#235347"/>
<path d="M548.714 315V346.5H512V315H548.714ZM512.5 346H548.214V315.5H512.5V346Z" fill="#235347"/>
<path d="M585.428 315V346.5H548.714V315H585.428ZM549.214 346H584.928V315.5H549.214V346Z" fill="#235347"/>
<path d="M622.143 315V346.5H585.428V315H622.143ZM585.929 346H621.643V315.5H585.929V346Z" fill="#235347"/>
<path d="M658.857 315V346.5H622.143V315H658.857ZM622.643 346H658.357V315.5H622.643V346Z" fill="#235347"/>
<path d="M695.571 315V346.5H658.857V315H695.571ZM659.357 346H695.071V315.5H659.357V346Z" fill="#235347"/>
<path d="M732.285 315V346.5H695.571V315H732.285ZM696.071 346H731.785V315.5H696.071V346Z" fill="#235347"/>
<path d="M769 315V346.5H732.285V315H769ZM732.786 346H768.5V315.5H732.786V346Z" fill="#235347"/>
<path d="M548.714 346.5V378H512V346.5H548.714ZM512.5 377.5H548.214V347H512.5V377.5Z" fill="#235347"/>
<path d="M585.428 346.5V378H548.714V346.5H585.428ZM549.214 377.5H584.928V347H549.214V377.5Z" fill="#235347"/>
<path d="M622.143 346.5V378H585.428V346.5H622.143ZM585.929 377.5H621.643V347H585.929V377.5Z" fill="#235347"/>
<path d="M658.857 346.5V378H622.143V346.5H658.857ZM622.643 377.5H658.357V347H622.643V377.5Z" fill="#235347"/>
<path d="M695.571 346.5V378H658.857V346.5H695.571ZM659.357 377.5H695.071V347H659.357V377.5Z" fill="#235347"/>
<path d="M732.285 346.5V378H695.571V346.5H732.285ZM696.071 377.5H731.785V347H696.071V377.5Z" fill="#235347"/>
<path d="M769 346.5V378H732.285V346.5H769ZM732.786 377.5H768.5V347H732.786V377.5Z" fill="#235347"/>
<path d="M548.714 378V409.5H512V378H548.714ZM512.5 409H548.214V378.5H512.5V409Z" fill="#235347"/>
<path d="M585.428 378V409.5H548.714V378H585.428ZM549.214 409H584.928V378.5H549.214V409Z" fill="#235347"/>
<path d="M622.143 378V409.5H585.428V378H622.143ZM585.929 409H621.643V378.5H585.929V409Z" fill="#235347"/>
<path d="M658.857 378V409.5H622.143V378H658.857ZM622.643 409H658.357V378.5H622.643V409Z" fill="#235347"/>
<path d="M695.571 378V409.5H658.857V378H695.571ZM659.357 409H695.071V378.5H659.357V409Z" fill="#235347"/>
<path d="M732.285 378V409.5H695.571V378H732.285ZM696.071 409H731.785V378.5H696.071V409Z" fill="#235347"/>
<path d="M769 378V409.5H732.285V378H769ZM732.786 409H768.5V378.5H732.786V409Z" fill="#235347"/>
<path d="M548.714 409.5V441H512V409.5H548.714ZM512.5 440.5H548.214V410H512.5V440.5Z" fill="#235347"/>
<path d="M585.428 409.5V441H548.714V409.5H585.428ZM549.214 440.5H584.928V410H549.214V440.5Z" fill="#235347"/>
<path d="M622.143 409.5V441H585.428V409.5H622.143ZM585.929 440.5H621.643V410H585.929V440.5Z" fill="#235347"/>
<path d="M658.857 409.5V441H622.143V409.5H658.857ZM622.643 440.5H658.357V410H622.643V440.5Z" fill="#235347"/>
<path d="M695.571 409.5V441H658.857V409.5H695.571ZM659.357 440.5H695.071V410H659.357V440.5Z" fill="#235347"/>
<path d="M732.285 409.5V441H695.571V409.5H732.285ZM696.071 440.5H731.785V410H696.071V440.5Z" fill="#235347"/>
<path d="M769 409.5V441H732.285V409.5H769ZM732.786 440.5H768.5V410H732.786V440.5Z" fill="#235347"/>
<path d="M548.714 441V472.5H512V441H548.714ZM512.5 472H548.214V441.5H512.5V472Z" fill="#235347"/>
<path d="M585.428 441V472.5H548.714V441H585.428ZM549.214 472H584.928V441.5H549.214V472Z" fill="#235347"/>
<path d="M622.143 441V472.5H585.428V441H622.143ZM585.929 472H621.643V441.5H585.929V472Z" fill="#235347"/>
<path d="M658.857 441V472.5H622.143V441H658.857ZM622.643 472H658.357V441.5H622.643V472Z" fill="#235347"/>
<path d="M695.571 441V472.5H658.857V441H695.571ZM659.357 472H695.071V441.5H659.357V472Z" fill="#235347"/>
<path d="M732.285 441V472.5H695.571V441H732.285ZM696.071 472H731.785V441.5H696.071V472Z" fill="#235347"/>
<path d="M769 441V472.5H732.285V441H769ZM732.786 472H768.5V441.5H732.786V472Z" fill="#235347"/>
<path d="M548.714 472.5V504H512V472.5H548.714ZM512.5 503.5H548.214V473H512.5V503.5Z" fill="#235347"/>
<path d="M585.428 472.5V504H548.714V472.5H585.428ZM549.214 503.5H584.928V473H549.214V503.5Z" fill="#235347"/>
<path d="M622.143 472.5V504H585.428V472.5H622.143ZM585.929 503.5H621.643V473H585.929V503.5Z" fill="#235347"/>
<path d="M658.857 472.5V504H622.143V472.5H658.857ZM622.643 503.5H658.357V473H622.643V503.5Z" fill="#235347"/>
<path d="M695.571 472.5V504H658.857V472.5H695.571ZM659.357 503.5H695.071V473H659.357V503.5Z" fill="#235347"/>
<path d="M732.285 472.5V504H695.571V472.5H732.285ZM696.071 503.5H731.785V473H696.071V503.5Z" fill="#235347"/>
<path d="M769 472.5V504H732.285V472.5H769ZM732.786 503.5H768.5V473H732.786V503.5Z" fill="#235347"/>
<path d="M548.714 504V535.5H512V504H548.714ZM512.5 535H548.214V504.5H512.5V535Z" fill="#235347"/>
<path d="M585.428 504V535.5H548.714V504H585.428ZM549.214 535H584.928V504.5H549.214V535Z" fill="#235347"/>
<path d="M622.143 504V535.5H585.428V504H622.143ZM585.929 535H621.643V504.5H585.929V535Z" fill="#235347"/>
<path d="M658.857 504V535.5H622.143V504H658.857ZM622.643 535H658.357V504.5H622.643V535Z" fill="#235347"/>
<path d="M695.571 504V535.5H658.857V504H695.571ZM659.357 535H695.071V504.5H659.357V535Z" fill="#235347"/>
<path d="M732.285 504V535.5H695.571V504H732.285ZM696.071 535H731.785V504.5H696.071V535Z" fill="#235347"/>
<path d="M769 504V535.5H732.285V504H769ZM732.786 535H768.5V504.5H732.786V535Z" fill="#235347"/>
<path d="M548.714 535.5V567H512V535.5H548.714ZM512.5 566.5H548.214V536H512.5V566.5Z" fill="#235347"/>
<path d="M585.428 535.5V567H548.714V535.5H585.428ZM549.214 566.5H584.928V536H549.214V566.5Z" fill="#235347"/>
<path d="M622.143 535.5V567H585.428V535.5H622.143ZM585.929 566.5H621.643V536H585.929V566.5Z" fill="#235347"/>
<path d="M658.857 535.5V567H622.143V535.5H658.857ZM622.643 566.5H658.357V536H622.643V566.5Z" fill="#235347"/>
<path d="M695.571 535.5V567H658.857V535.5H695.571ZM659.357 566.5H695.071V536H659.357V566.5Z" fill="#235347"/>
<path d="M732.285 535.5V567H695.571V535.5H732.285ZM696.071 566.5H731.785V536H696.071V566.5Z" fill="#235347"/>
<path d="M769 535.5V567H732.285V535.5H769ZM732.786 566.5H768.5V536H732.786V566.5Z" fill="#235347"/>
<path d="M548.714 567V598.5H512V567H548.714ZM512.5 598H548.214V567.5H512.5V598Z" fill="#235347"/>
<path d="M585.428 567V598.5H548.714V567H585.428ZM549.214 598H584.928V567.5H549.214V598Z" fill="#235347"/>
<path d="M622.143 567V598.5H585.428V567H622.143ZM585.929 598H621.643V567.5H585.929V598Z" fill="#235347"/>
<path d="M658.857 567V598.5H622.143V567H658.857ZM622.643 598H658.357V567.5H622.643V598Z" fill="#235347"/>
<path d="M695.571 567V598.5H658.857V567H695.571ZM659.357 598H695.071V567.5H659.357V598Z" fill="#235347"/>
<path d="M732.285 567V598.5H695.571V567H732.285ZM696.071 598H731.785V567.5H696.071V598Z" fill="#235347"/>
<path d="M769 567V598.5H732.285V567H769ZM732.786 598H768.5V567.5H732.786V598Z" fill="#235347"/>
<path d="M548.714 598.5V630H512V598.5H548.714ZM512.5 629.5H548.214V599H512.5V629.5Z" fill="#235347"/>
<path d="M585.428 598.5V630H548.714V598.5H585.428ZM549.214 629.5H584.928V599H549.214V629.5Z" fill="#235347"/>
<path d="M622.143 598.5V630H585.428V598.5H622.143ZM585.929 629.5H621.643V599H585.929V629.5Z" fill="#235347"/>
<path d="M658.857 598.5V630H622.143V598.5H658.857ZM622.643 629.5H658.357V599H622.643V629.5Z" fill="#235347"/>
<path d="M695.571 598.5V630H658.857V598.5H695.571ZM659.357 629.5H695.071V599H659.357V629.5Z" fill="#235347"/>
<path d="M732.285 598.5V630H695.571V598.5H732.285ZM696.071 629.5H731.785V599H696.071V629.5Z" fill="#235347"/>
<path d="M769 598.5V630H732.285V598.5H769ZM732.786 629.5H768.5V599H732.786V629.5Z" fill="#235347"/>
<path d="M548.714 630V661.5H512V630H548.714ZM512.5 661H548.214V630.5H512.5V661Z" fill="#235347"/>
<path d="M585.428 630V661.5H548.714V630H585.428ZM549.214 661H584.928V630.5H549.214V661Z" fill="#235347"/>
<path d="M622.143 630V661.5H585.428V630H622.143ZM585.929 661H621.643V630.5H585.929V661Z" fill="#235347"/>
<path d="M658.857 630V661.5H622.143V630H658.857ZM622.643 661H658.357V630.5H622.643V661Z" fill="#235347"/>
<path d="M695.571 630V661.5H658.857V630H695.571ZM659.357 661H695.071V630.5H659.357V661Z" fill="#235347"/>
<path d="M732.285 630V661.5H695.571V630H732.285ZM696.071 661H731.785V630.5H696.071V661Z" fill="#235347"/>
<path d="M769 630V661.5H732.285V630H769ZM732.786 661H768.5V630.5H732.786V661Z" fill="#235347"/>
<path d="M548.714 661.5V693H512V661.5H548.714ZM512.5 692.5H548.214V662H512.5V692.5Z" fill="#235347"/>
<path d="M585.428 661.5V693H548.714V661.5H585.428ZM549.214 692.5H584.928V662H549.214V692.5Z" fill="#235347"/>
<path d="M622.143 661.5V693H585.428V661.5H622.143ZM585.929 692.5H621.643V662H585.929V692.5Z" fill="#235347"/>
<path d="M658.857 661.5V693H622.143V661.5H658.857ZM622.643 692.5H658.357V662H622.643V692.5Z" fill="#235347"/>
<path d="M695.571 661.5V693H658.857V661.5H695.571ZM659.357 692.5H695.071V662H659.357V692.5Z" fill="#235347"/>
<path d="M732.285 661.5V693H695.571V661.5H732.285ZM696.071 692.5H731.785V662H696.071V692.5Z" fill="#235347"/>
<path d="M769 661.5V693H732.285V661.5H769ZM732.786 692.5H768.5V662H732.786V692.5Z" fill="#235347"/>
<path d="M805.571 0V31.5H769V0H805.571ZM769.5 31H805.071V0.5H769.5V31Z" fill="#235347"/>
<path d="M842.143 0V31.5H805.571V0H842.143ZM806.071 31H841.643V0.5H806.071V31Z" fill="#235347"/>
<path d="M878.714 0V31.5H842.143V0H878.714ZM842.643 31H878.214V0.5H842.643V31Z" fill="#235347"/>
<path d="M915.286 0V31.5H878.714V0H915.286ZM879.214 31H914.786V0.5H879.214V31Z" fill="#235347"/>
<path d="M951.857 0V31.5H915.286V0H951.857ZM915.786 31H951.357V0.5H915.786V31Z" fill="#235347"/>
<path d="M988.428 0V31.5H951.857V0H988.428ZM952.357 31H987.928V0.5H952.357V31Z" fill="#235347"/>
<path d="M1025 0V31.5H988.428V0H1025ZM988.929 31H1024.5V0.5H988.929V31Z" fill="#235347"/>
<path d="M805.571 31.5V63H769V31.5H805.571ZM769.5 62.5H805.071V32H769.5V62.5Z" fill="#235347"/>
<path d="M842.143 31.5V63H805.571V31.5H842.143ZM806.071 62.5H841.643V32H806.071V62.5Z" fill="#235347"/>
<path d="M878.714 31.5V63H842.143V31.5H878.714ZM842.643 62.5H878.214V32H842.643V62.5Z" fill="#235347"/>
<path d="M915.286 31.5V63H878.714V31.5H915.286ZM879.214 62.5H914.786V32H879.214V62.5Z" fill="#235347"/>
<path d="M951.857 31.5V63H915.286V31.5H951.857ZM915.786 62.5H951.357V32H915.786V62.5Z" fill="#235347"/>
<path d="M988.428 31.5V63H951.857V31.5H988.428ZM952.357 62.5H987.928V32H952.357V62.5Z" fill="#235347"/>
<path d="M1025 31.5V63H988.428V31.5H1025ZM988.929 62.5H1024.5V32H988.929V62.5Z" fill="#235347"/>
<path d="M805.571 63V94.5H769V63H805.571ZM769.5 94H805.071V63.5H769.5V94Z" fill="#235347"/>
<path d="M842.143 63V94.5H805.571V63H842.143ZM806.071 94H841.643V63.5H806.071V94Z" fill="#235347"/>
<path d="M878.714 63V94.5H842.143V63H878.714ZM842.643 94H878.214V63.5H842.643V94Z" fill="#235347"/>
<path d="M915.286 63V94.5H878.714V63H915.286ZM879.214 94H914.786V63.5H879.214V94Z" fill="#235347"/>
<path d="M951.857 63V94.5H915.286V63H951.857ZM915.786 94H951.357V63.5H915.786V94Z" fill="#235347"/>
<path d="M988.428 63V94.5H951.857V63H988.428ZM952.357 94H987.928V63.5H952.357V94Z" fill="#235347"/>
<path d="M1025 63V94.5H988.428V63H1025ZM988.929 94H1024.5V63.5H988.929V94Z" fill="#235347"/>
<path d="M805.571 94.5V126H769V94.5H805.571ZM769.5 125.5H805.071V95H769.5V125.5Z" fill="#235347"/>
<path d="M842.143 94.5V126H805.571V94.5H842.143ZM806.071 125.5H841.643V95H806.071V125.5Z" fill="#235347"/>
<path d="M878.714 94.5V126H842.143V94.5H878.714ZM842.643 125.5H878.214V95H842.643V125.5Z" fill="#235347"/>
<path d="M915.286 94.5V126H878.714V94.5H915.286ZM879.214 125.5H914.786V95H879.214V125.5Z" fill="#235347"/>
<path d="M951.857 94.5V126H915.286V94.5H951.857ZM915.786 125.5H951.357V95H915.786V125.5Z" fill="#235347"/>
<path d="M988.428 94.5V126H951.857V94.5H988.428ZM952.357 125.5H987.928V95H952.357V125.5Z" fill="#235347"/>
<path d="M1025 94.5V126H988.428V94.5H1025ZM988.929 125.5H1024.5V95H988.929V125.5Z" fill="#235347"/>
<path d="M805.571 126V157.5H769V126H805.571ZM769.5 157H805.071V126.5H769.5V157Z" fill="#235347"/>
<path d="M842.143 126V157.5H805.571V126H842.143ZM806.071 157H841.643V126.5H806.071V157Z" fill="#235347"/>
<path d="M878.714 126V157.5H842.143V126H878.714ZM842.643 157H878.214V126.5H842.643V157Z" fill="#235347"/>
<path d="M915.286 126V157.5H878.714V126H915.286ZM879.214 157H914.786V126.5H879.214V157Z" fill="#235347"/>
<path d="M951.857 126V157.5H915.286V126H951.857ZM915.786 157H951.357V126.5H915.786V157Z" fill="#235347"/>
<path d="M988.428 126V157.5H951.857V126H988.428ZM952.357 157H987.928V126.5H952.357V157Z" fill="#235347"/>
<path d="M1025 126V157.5H988.428V126H1025ZM988.929 157H1024.5V126.5H988.929V157Z" fill="#235347"/>
<path d="M805.571 157.5V189H769V157.5H805.571ZM769.5 188.5H805.071V158H769.5V188.5Z" fill="#235347"/>
<path d="M842.143 157.5V189H805.571V157.5H842.143ZM806.071 188.5H841.643V158H806.071V188.5Z" fill="#235347"/>
<path d="M878.714 157.5V189H842.143V157.5H878.714ZM842.643 188.5H878.214V158H842.643V188.5Z" fill="#235347"/>
<path d="M915.286 157.5V189H878.714V157.5H915.286ZM879.214 188.5H914.786V158H879.214V188.5Z" fill="#235347"/>
<path d="M951.857 157.5V189H915.286V157.5H951.857ZM915.786 188.5H951.357V158H915.786V188.5Z" fill="#235347"/>
<path d="M988.428 157.5V189H951.857V157.5H988.428ZM952.357 188.5H987.928V158H952.357V188.5Z" fill="#235347"/>
<path d="M1025 157.5V189H988.428V157.5H1025ZM988.929 188.5H1024.5V158H988.929V188.5Z" fill="#235347"/>
<path d="M805.571 189V220.5H769V189H805.571ZM769.5 220H805.071V189.5H769.5V220Z" fill="#235347"/>
<path d="M842.143 189V220.5H805.571V189H842.143ZM806.071 220H841.643V189.5H806.071V220Z" fill="#235347"/>
<path d="M878.714 189V220.5H842.143V189H878.714ZM842.643 220H878.214V189.5H842.643V220Z" fill="#235347"/>
<path d="M915.286 189V220.5H878.714V189H915.286ZM879.214 220H914.786V189.5H879.214V220Z" fill="#235347"/>
<path d="M951.857 189V220.5H915.286V189H951.857ZM915.786 220H951.357V189.5H915.786V220Z" fill="#235347"/>
<path d="M988.428 189V220.5H951.857V189H988.428ZM952.357 220H987.928V189.5H952.357V220Z" fill="#235347"/>
<path d="M1025 189V220.5H988.428V189H1025ZM988.929 220H1024.5V189.5H988.929V220Z" fill="#235347"/>
<path d="M805.571 220.5V252H769V220.5H805.571ZM769.5 251.5H805.071V221H769.5V251.5Z" fill="#235347"/>
<path d="M842.143 220.5V252H805.571V220.5H842.143ZM806.071 251.5H841.643V221H806.071V251.5Z" fill="#235347"/>
<path d="M878.714 220.5V252H842.143V220.5H878.714ZM842.643 251.5H878.214V221H842.643V251.5Z" fill="#235347"/>
<path d="M915.286 220.5V252H878.714V220.5H915.286ZM879.214 251.5H914.786V221H879.214V251.5Z" fill="#235347"/>
<path d="M951.857 220.5V252H915.286V220.5H951.857ZM915.786 251.5H951.357V221H915.786V251.5Z" fill="#235347"/>
<path d="M988.428 220.5V252H951.857V220.5H988.428ZM952.357 251.5H987.928V221H952.357V251.5Z" fill="#235347"/>
<path d="M1025 220.5V252H988.428V220.5H1025ZM988.929 251.5H1024.5V221H988.929V251.5Z" fill="#235347"/>
<path d="M805.571 252V283.5H769V252H805.571ZM769.5 283H805.071V252.5H769.5V283Z" fill="#235347"/>
<path d="M842.143 252V283.5H805.571V252H842.143ZM806.071 283H841.643V252.5H806.071V283Z" fill="#235347"/>
<path d="M878.714 252V283.5H842.143V252H878.714ZM842.643 283H878.214V252.5H842.643V283Z" fill="#235347"/>
<path d="M915.286 252V283.5H878.714V252H915.286ZM879.214 283H914.786V252.5H879.214V283Z" fill="#235347"/>
<path d="M951.857 252V283.5H915.286V252H951.857ZM915.786 283H951.357V252.5H915.786V283Z" fill="#235347"/>
<path d="M988.428 252V283.5H951.857V252H988.428ZM952.357 283H987.928V252.5H952.357V283Z" fill="#235347"/>
<path d="M1025 252V283.5H988.428V252H1025ZM988.929 283H1024.5V252.5H988.929V283Z" fill="#235347"/>
<path d="M805.571 283.5V315H769V283.5H805.571ZM769.5 314.5H805.071V284H769.5V314.5Z" fill="#235347"/>
<path d="M842.143 283.5V315H805.571V283.5H842.143ZM806.071 314.5H841.643V284H806.071V314.5Z" fill="#235347"/>
<path d="M878.714 283.5V315H842.143V283.5H878.714ZM842.643 314.5H878.214V284H842.643V314.5Z" fill="#235347"/>
<path d="M915.286 283.5V315H878.714V283.5H915.286ZM879.214 314.5H914.786V284H879.214V314.5Z" fill="#235347"/>
<path d="M951.857 283.5V315H915.286V283.5H951.857ZM915.786 314.5H951.357V284H915.786V314.5Z" fill="#235347"/>
<path d="M988.428 283.5V315H951.857V283.5H988.428ZM952.357 314.5H987.928V284H952.357V314.5Z" fill="#235347"/>
<path d="M1025 283.5V315H988.428V283.5H1025ZM988.929 314.5H1024.5V284H988.929V314.5Z" fill="#235347"/>
<path d="M805.571 315V346.5H769V315H805.571ZM769.5 346H805.071V315.5H769.5V346Z" fill="#235347"/>
<path d="M842.143 315V346.5H805.571V315H842.143ZM806.071 346H841.643V315.5H806.071V346Z" fill="#235347"/>
<path d="M878.714 315V346.5H842.143V315H878.714ZM842.643 346H878.214V315.5H842.643V346Z" fill="#235347"/>
<path d="M915.286 315V346.5H878.714V315H915.286ZM879.214 346H914.786V315.5H879.214V346Z" fill="#235347"/>
<path d="M951.857 315V346.5H915.286V315H951.857ZM915.786 346H951.357V315.5H915.786V346Z" fill="#235347"/>
<path d="M988.428 315V346.5H951.857V315H988.428ZM952.357 346H987.928V315.5H952.357V346Z" fill="#235347"/>
<path d="M1025 315V346.5H988.428V315H1025ZM988.929 346H1024.5V315.5H988.929V346Z" fill="#235347"/>
<path d="M805.571 346.5V378H769V346.5H805.571ZM769.5 377.5H805.071V347H769.5V377.5Z" fill="#235347"/>
<path d="M842.143 346.5V378H805.571V346.5H842.143ZM806.071 377.5H841.643V347H806.071V377.5Z" fill="#235347"/>
<path d="M878.714 346.5V378H842.143V346.5H878.714ZM842.643 377.5H878.214V347H842.643V377.5Z" fill="#235347"/>
<path d="M915.286 346.5V378H878.714V346.5H915.286ZM879.214 377.5H914.786V347H879.214V377.5Z" fill="#235347"/>
<path d="M951.857 346.5V378H915.286V346.5H951.857ZM915.786 377.5H951.357V347H915.786V377.5Z" fill="#235347"/>
<path d="M988.428 346.5V378H951.857V346.5H988.428ZM952.357 377.5H987.928V347H952.357V377.5Z" fill="#235347"/>
<path d="M1025 346.5V378H988.428V346.5H1025ZM988.929 377.5H1024.5V347H988.929V377.5Z" fill="#235347"/>
<path d="M805.571 378V409.5H769V378H805.571ZM769.5 409H805.071V378.5H769.5V409Z" fill="#235347"/>
<path d="M842.143 378V409.5H805.571V378H842.143ZM806.071 409H841.643V378.5H806.071V409Z" fill="#235347"/>
<path d="M878.714 378V409.5H842.143V378H878.714ZM842.643 409H878.214V378.5H842.643V409Z" fill="#235347"/>
<path d="M915.286 378V409.5H878.714V378H915.286ZM879.214 409H914.786V378.5H879.214V409Z" fill="#235347"/>
<path d="M951.857 378V409.5H915.286V378H951.857ZM915.786 409H951.357V378.5H915.786V409Z" fill="#235347"/>
<path d="M988.428 378V409.5H951.857V378H988.428ZM952.357 409H987.928V378.5H952.357V409Z" fill="#235347"/>
<path d="M1025 378V409.5H988.428V378H1025ZM988.929 409H1024.5V378.5H988.929V409Z" fill="#235347"/>
<path d="M805.571 409.5V441H769V409.5H805.571ZM769.5 440.5H805.071V410H769.5V440.5Z" fill="#235347"/>
<path d="M842.143 409.5V441H805.571V409.5H842.143ZM806.071 440.5H841.643V410H806.071V440.5Z" fill="#235347"/>
<path d="M878.714 409.5V441H842.143V409.5H878.714ZM842.643 440.5H878.214V410H842.643V440.5Z" fill="#235347"/>
<path d="M915.286 409.5V441H878.714V409.5H915.286ZM879.214 440.5H914.786V410H879.214V440.5Z" fill="#235347"/>
<path d="M951.857 409.5V441H915.286V409.5H951.857ZM915.786 440.5H951.357V410H915.786V440.5Z" fill="#235347"/>
<path d="M988.428 409.5V441H951.857V409.5H988.428ZM952.357 440.5H987.928V410H952.357V440.5Z" fill="#235347"/>
<path d="M1025 409.5V441H988.428V409.5H1025ZM988.929 440.5H1024.5V410H988.929V440.5Z" fill="#235347"/>
<path d="M805.571 441V472.5H769V441H805.571ZM769.5 472H805.071V441.5H769.5V472Z" fill="#235347"/>
<path d="M842.143 441V472.5H805.571V441H842.143ZM806.071 472H841.643V441.5H806.071V472Z" fill="#235347"/>
<path d="M878.714 441V472.5H842.143V441H878.714ZM842.643 472H878.214V441.5H842.643V472Z" fill="#235347"/>
<path d="M915.286 441V472.5H878.714V441H915.286ZM879.214 472H914.786V441.5H879.214V472Z" fill="#235347"/>
<path d="M951.857 441V472.5H915.286V441H951.857ZM915.786 472H951.357V441.5H915.786V472Z" fill="#235347"/>
<path d="M988.428 441V472.5H951.857V441H988.428ZM952.357 472H987.928V441.5H952.357V472Z" fill="#235347"/>
<path d="M1025 441V472.5H988.428V441H1025ZM988.929 472H1024.5V441.5H988.929V472Z" fill="#235347"/>
<path d="M805.571 472.5V504H769V472.5H805.571ZM769.5 503.5H805.071V473H769.5V503.5Z" fill="#235347"/>
<path d="M842.143 472.5V504H805.571V472.5H842.143ZM806.071 503.5H841.643V473H806.071V503.5Z" fill="#235347"/>
<path d="M878.714 472.5V504H842.143V472.5H878.714ZM842.643 503.5H878.214V473H842.643V503.5Z" fill="#235347"/>
<path d="M915.286 472.5V504H878.714V472.5H915.286ZM879.214 503.5H914.786V473H879.214V503.5Z" fill="#235347"/>
<path d="M951.857 472.5V504H915.286V472.5H951.857ZM915.786 503.5H951.357V473H915.786V503.5Z" fill="#235347"/>
<path d="M988.428 472.5V504H951.857V472.5H988.428ZM952.357 503.5H987.928V473H952.357V503.5Z" fill="#235347"/>
<path d="M1025 472.5V504H988.428V472.5H1025ZM988.929 503.5H1024.5V473H988.929V503.5Z" fill="#235347"/>
<path d="M805.571 504V535.5H769V504H805.571ZM769.5 535H805.071V504.5H769.5V535Z" fill="#235347"/>
<path d="M842.143 504V535.5H805.571V504H842.143ZM806.071 535H841.643V504.5H806.071V535Z" fill="#235347"/>
<path d="M878.714 504V535.5H842.143V504H878.714ZM842.643 535H878.214V504.5H842.643V535Z" fill="#235347"/>
<path d="M915.286 504V535.5H878.714V504H915.286ZM879.214 535H914.786V504.5H879.214V535Z" fill="#235347"/>
<path d="M951.857 504V535.5H915.286V504H951.857ZM915.786 535H951.357V504.5H915.786V535Z" fill="#235347"/>
<path d="M988.428 504V535.5H951.857V504H988.428ZM952.357 535H987.928V504.5H952.357V535Z" fill="#235347"/>
<path d="M1025 504V535.5H988.428V504H1025ZM988.929 535H1024.5V504.5H988.929V535Z" fill="#235347"/>
<path d="M805.571 535.5V567H769V535.5H805.571ZM769.5 566.5H805.071V536H769.5V566.5Z" fill="#235347"/>
<path d="M842.143 535.5V567H805.571V535.5H842.143ZM806.071 566.5H841.643V536H806.071V566.5Z" fill="#235347"/>
<path d="M878.714 535.5V567H842.143V535.5H878.714ZM842.643 566.5H878.214V536H842.643V566.5Z" fill="#235347"/>
<path d="M915.286 535.5V567H878.714V535.5H915.286ZM879.214 566.5H914.786V536H879.214V566.5Z" fill="#235347"/>
<path d="M951.857 535.5V567H915.286V535.5H951.857ZM915.786 566.5H951.357V536H915.786V566.5Z" fill="#235347"/>
<path d="M988.428 535.5V567H951.857V535.5H988.428ZM952.357 566.5H987.928V536H952.357V566.5Z" fill="#235347"/>
<path d="M1025 535.5V567H988.428V535.5H1025ZM988.929 566.5H1024.5V536H988.929V566.5Z" fill="#235347"/>
<path d="M805.571 567V598.5H769V567H805.571ZM769.5 598H805.071V567.5H769.5V598Z" fill="#235347"/>
<path d="M842.143 567V598.5H805.571V567H842.143ZM806.071 598H841.643V567.5H806.071V598Z" fill="#235347"/>
<path d="M878.714 567V598.5H842.143V567H878.714ZM842.643 598H878.214V567.5H842.643V598Z" fill="#235347"/>
<path d="M915.286 567V598.5H878.714V567H915.286ZM879.214 598H914.786V567.5H879.214V598Z" fill="#235347"/>
<path d="M951.857 567V598.5H915.286V567H951.857ZM915.786 598H951.357V567.5H915.786V598Z" fill="#235347"/>
<path d="M988.428 567V598.5H951.857V567H988.428ZM952.357 598H987.928V567.5H952.357V598Z" fill="#235347"/>
<path d="M1025 567V598.5H988.428V567H1025ZM988.929 598H1024.5V567.5H988.929V598Z" fill="#235347"/>
<path d="M805.571 598.5V630H769V598.5H805.571ZM769.5 629.5H805.071V599H769.5V629.5Z" fill="#235347"/>
<path d="M842.143 598.5V630H805.571V598.5H842.143ZM806.071 629.5H841.643V599H806.071V629.5Z" fill="#235347"/>
<path d="M878.714 598.5V630H842.143V598.5H878.714ZM842.643 629.5H878.214V599H842.643V629.5Z" fill="#235347"/>
<path d="M915.286 598.5V630H878.714V598.5H915.286ZM879.214 629.5H914.786V599H879.214V629.5Z" fill="#235347"/>
<path d="M951.857 598.5V630H915.286V598.5H951.857ZM915.786 629.5H951.357V599H915.786V629.5Z" fill="#235347"/>
<path d="M988.428 598.5V630H951.857V598.5H988.428ZM952.357 629.5H987.928V599H952.357V629.5Z" fill="#235347"/>
<path d="M1025 598.5V630H988.428V598.5H1025ZM988.929 629.5H1024.5V599H988.929V629.5Z" fill="#235347"/>
<path d="M805.571 630V661.5H769V630H805.571ZM769.5 661H805.071V630.5H769.5V661Z" fill="#235347"/>
<path d="M842.143 630V661.5H805.571V630H842.143ZM806.071 661H841.643V630.5H806.071V661Z" fill="#235347"/>
<path d="M878.714 630V661.5H842.143V630H878.714ZM842.643 661H878.214V630.5H842.643V661Z" fill="#235347"/>
<path d="M915.286 630V661.5H878.714V630H915.286ZM879.214 661H914.786V630.5H879.214V661Z" fill="#235347"/>
<path d="M951.857 630V661.5H915.286V630H951.857ZM915.786 661H951.357V630.5H915.786V661Z" fill="#235347"/>
<path d="M988.428 630V661.5H951.857V630H988.428ZM952.357 661H987.928V630.5H952.357V661Z" fill="#235347"/>
<path d="M1025 630V661.5H988.428V630H1025ZM988.929 661H1024.5V630.5H988.929V661Z" fill="#235347"/>
<path d="M805.571 661.5V693H769V661.5H805.571ZM769.5 692.5H805.071V662H769.5V692.5Z" fill="#235347"/>
<path d="M842.143 661.5V693H805.571V661.5H842.143ZM806.071 692.5H841.643V662H806.071V692.5Z" fill="#235347"/>
<path d="M878.714 661.5V693H842.143V661.5H878.714ZM842.643 692.5H878.214V662H842.643V692.5Z" fill="#235347"/>
<path d="M915.286 661.5V693H878.714V661.5H915.286ZM879.214 692.5H914.786V662H879.214V692.5Z" fill="#235347"/>
<path d="M951.857 661.5V693H915.286V661.5H951.857ZM915.786 692.5H951.357V662H915.786V692.5Z" fill="#235347"/>
<path d="M988.428 661.5V693H951.857V661.5H988.428ZM952.357 692.5H987.928V662H952.357V692.5Z" fill="#235347"/>
<path d="M1025 661.5V693H988.428V661.5H1025ZM988.929 692.5H1024.5V662H988.929V692.5Z" fill="#235347"/>
<path d="M1061.57 0V31.5H1025V0H1061.57ZM1025.5 31H1061.07V0.5H1025.5V31Z" fill="#235347"/>
<path d="M1098.14 0V31.5H1061.57V0H1098.14ZM1062.07 31H1097.64V0.5H1062.07V31Z" fill="#235347"/>
<path d="M1134.71 0V31.5H1098.14V0H1134.71ZM1098.64 31H1134.21V0.5H1098.64V31Z" fill="#235347"/>
<path d="M1171.29 0V31.5H1134.71V0H1171.29ZM1135.21 31H1170.79V0.5H1135.21V31Z" fill="#235347"/>
<path d="M1207.86 0V31.5H1171.29V0H1207.86ZM1171.79 31H1207.36V0.5H1171.79V31Z" fill="#235347"/>
<path d="M1244.43 0V31.5H1207.86V0H1244.43ZM1208.36 31H1243.93V0.5H1208.36V31Z" fill="#235347"/>
<path d="M1281 0V31.5H1244.43V0H1281ZM1244.93 31H1280.5V0.5H1244.93V31Z" fill="#235347"/>
<path d="M1061.57 31.5V63H1025V31.5H1061.57ZM1025.5 62.5H1061.07V32H1025.5V62.5Z" fill="#235347"/>
<path d="M1098.14 31.5V63H1061.57V31.5H1098.14ZM1062.07 62.5H1097.64V32H1062.07V62.5Z" fill="#235347"/>
<path d="M1134.71 31.5V63H1098.14V31.5H1134.71ZM1098.64 62.5H1134.21V32H1098.64V62.5Z" fill="#235347"/>
<path d="M1171.29 31.5V63H1134.71V31.5H1171.29ZM1135.21 62.5H1170.79V32H1135.21V62.5Z" fill="#235347"/>
<path d="M1207.86 31.5V63H1171.29V31.5H1207.86ZM1171.79 62.5H1207.36V32H1171.79V62.5Z" fill="#235347"/>
<path d="M1244.43 31.5V63H1207.86V31.5H1244.43ZM1208.36 62.5H1243.93V32H1208.36V62.5Z" fill="#235347"/>
<path d="M1281 31.5V63H1244.43V31.5H1281ZM1244.93 62.5H1280.5V32H1244.93V62.5Z" fill="#235347"/>
<path d="M1061.57 63V94.5H1025V63H1061.57ZM1025.5 94H1061.07V63.5H1025.5V94Z" fill="#235347"/>
<path d="M1098.14 63V94.5H1061.57V63H1098.14ZM1062.07 94H1097.64V63.5H1062.07V94Z" fill="#235347"/>
<path d="M1134.71 63V94.5H1098.14V63H1134.71ZM1098.64 94H1134.21V63.5H1098.64V94Z" fill="#235347"/>
<path d="M1171.29 63V94.5H1134.71V63H1171.29ZM1135.21 94H1170.79V63.5H1135.21V94Z" fill="#235347"/>
<path d="M1207.86 63V94.5H1171.29V63H1207.86ZM1171.79 94H1207.36V63.5H1171.79V94Z" fill="#235347"/>
<path d="M1244.43 63V94.5H1207.86V63H1244.43ZM1208.36 94H1243.93V63.5H1208.36V94Z" fill="#235347"/>
<path d="M1281 63V94.5H1244.43V63H1281ZM1244.93 94H1280.5V63.5H1244.93V94Z" fill="#235347"/>
<path d="M1061.57 94.5V126H1025V94.5H1061.57ZM1025.5 125.5H1061.07V95H1025.5V125.5Z" fill="#235347"/>
<path d="M1098.14 94.5V126H1061.57V94.5H1098.14ZM1062.07 125.5H1097.64V95H1062.07V125.5Z" fill="#235347"/>
<path d="M1134.71 94.5V126H1098.14V94.5H1134.71ZM1098.64 125.5H1134.21V95H1098.64V125.5Z" fill="#235347"/>
<path d="M1171.29 94.5V126H1134.71V94.5H1171.29ZM1135.21 125.5H1170.79V95H1135.21V125.5Z" fill="#235347"/>
<path d="M1207.86 94.5V126H1171.29V94.5H1207.86ZM1171.79 125.5H1207.36V95H1171.79V125.5Z" fill="#235347"/>
<path d="M1244.43 94.5V126H1207.86V94.5H1244.43ZM1208.36 125.5H1243.93V95H1208.36V125.5Z" fill="#235347"/>
<path d="M1281 94.5V126H1244.43V94.5H1281ZM1244.93 125.5H1280.5V95H1244.93V125.5Z" fill="#235347"/>
<path d="M1061.57 126V157.5H1025V126H1061.57ZM1025.5 157H1061.07V126.5H1025.5V157Z" fill="#235347"/>
<path d="M1098.14 126V157.5H1061.57V126H1098.14ZM1062.07 157H1097.64V126.5H1062.07V157Z" fill="#235347"/>
<path d="M1134.71 126V157.5H1098.14V126H1134.71ZM1098.64 157H1134.21V126.5H1098.64V157Z" fill="#235347"/>
<path d="M1171.29 126V157.5H1134.71V126H1171.29ZM1135.21 157H1170.79V126.5H1135.21V157Z" fill="#235347"/>
<path d="M1207.86 126V157.5H1171.29V126H1207.86ZM1171.79 157H1207.36V126.5H1171.79V157Z" fill="#235347"/>
<path d="M1244.43 126V157.5H1207.86V126H1244.43ZM1208.36 157H1243.93V126.5H1208.36V157Z" fill="#235347"/>
<path d="M1281 126V157.5H1244.43V126H1281ZM1244.93 157H1280.5V126.5H1244.93V157Z" fill="#235347"/>
<path d="M1061.57 157.5V189H1025V157.5H1061.57ZM1025.5 188.5H1061.07V158H1025.5V188.5Z" fill="#235347"/>
<path d="M1098.14 157.5V189H1061.57V157.5H1098.14ZM1062.07 188.5H1097.64V158H1062.07V188.5Z" fill="#235347"/>
<path d="M1134.71 157.5V189H1098.14V157.5H1134.71ZM1098.64 188.5H1134.21V158H1098.64V188.5Z" fill="#235347"/>
<path d="M1171.29 157.5V189H1134.71V157.5H1171.29ZM1135.21 188.5H1170.79V158H1135.21V188.5Z" fill="#235347"/>
<path d="M1207.86 157.5V189H1171.29V157.5H1207.86ZM1171.79 188.5H1207.36V158H1171.79V188.5Z" fill="#235347"/>
<path d="M1244.43 157.5V189H1207.86V157.5H1244.43ZM1208.36 188.5H1243.93V158H1208.36V188.5Z" fill="#235347"/>
<path d="M1281 157.5V189H1244.43V157.5H1281ZM1244.93 188.5H1280.5V158H1244.93V188.5Z" fill="#235347"/>
<path d="M1061.57 189V220.5H1025V189H1061.57ZM1025.5 220H1061.07V189.5H1025.5V220Z" fill="#235347"/>
<path d="M1098.14 189V220.5H1061.57V189H1098.14ZM1062.07 220H1097.64V189.5H1062.07V220Z" fill="#235347"/>
<path d="M1134.71 189V220.5H1098.14V189H1134.71ZM1098.64 220H1134.21V189.5H1098.64V220Z" fill="#235347"/>
<path d="M1171.29 189V220.5H1134.71V189H1171.29ZM1135.21 220H1170.79V189.5H1135.21V220Z" fill="#235347"/>
<path d="M1207.86 189V220.5H1171.29V189H1207.86ZM1171.79 220H1207.36V189.5H1171.79V220Z" fill="#235347"/>
<path d="M1244.43 189V220.5H1207.86V189H1244.43ZM1208.36 220H1243.93V189.5H1208.36V220Z" fill="#235347"/>
<path d="M1281 189V220.5H1244.43V189H1281ZM1244.93 220H1280.5V189.5H1244.93V220Z" fill="#235347"/>
<path d="M1061.57 220.5V252H1025V220.5H1061.57ZM1025.5 251.5H1061.07V221H1025.5V251.5Z" fill="#235347"/>
<path d="M1098.14 220.5V252H1061.57V220.5H1098.14ZM1062.07 251.5H1097.64V221H1062.07V251.5Z" fill="#235347"/>
<path d="M1134.71 220.5V252H1098.14V220.5H1134.71ZM1098.64 251.5H1134.21V221H1098.64V251.5Z" fill="#235347"/>
<path d="M1171.29 220.5V252H1134.71V220.5H1171.29ZM1135.21 251.5H1170.79V221H1135.21V251.5Z" fill="#235347"/>
<path d="M1207.86 220.5V252H1171.29V220.5H1207.86ZM1171.79 251.5H1207.36V221H1171.79V251.5Z" fill="#235347"/>
<path d="M1244.43 220.5V252H1207.86V220.5H1244.43ZM1208.36 251.5H1243.93V221H1208.36V251.5Z" fill="#235347"/>
<path d="M1281 220.5V252H1244.43V220.5H1281ZM1244.93 251.5H1280.5V221H1244.93V251.5Z" fill="#235347"/>
<path d="M1061.57 252V283.5H1025V252H1061.57ZM1025.5 283H1061.07V252.5H1025.5V283Z" fill="#235347"/>
<path d="M1098.14 252V283.5H1061.57V252H1098.14ZM1062.07 283H1097.64V252.5H1062.07V283Z" fill="#235347"/>
<path d="M1134.71 252V283.5H1098.14V252H1134.71ZM1098.64 283H1134.21V252.5H1098.64V283Z" fill="#235347"/>
<path d="M1171.29 252V283.5H1134.71V252H1171.29ZM1135.21 283H1170.79V252.5H1135.21V283Z" fill="#235347"/>
<path d="M1207.86 252V283.5H1171.29V252H1207.86ZM1171.79 283H1207.36V252.5H1171.79V283Z" fill="#235347"/>
<path d="M1244.43 252V283.5H1207.86V252H1244.43ZM1208.36 283H1243.93V252.5H1208.36V283Z" fill="#235347"/>
<path d="M1281 252V283.5H1244.43V252H1281ZM1244.93 283H1280.5V252.5H1244.93V283Z" fill="#235347"/>
<path d="M1061.57 283.5V315H1025V283.5H1061.57ZM1025.5 314.5H1061.07V284H1025.5V314.5Z" fill="#235347"/>
<path d="M1098.14 283.5V315H1061.57V283.5H1098.14ZM1062.07 314.5H1097.64V284H1062.07V314.5Z" fill="#235347"/>
<path d="M1134.71 283.5V315H1098.14V283.5H1134.71ZM1098.64 314.5H1134.21V284H1098.64V314.5Z" fill="#235347"/>
<path d="M1171.29 283.5V315H1134.71V283.5H1171.29ZM1135.21 314.5H1170.79V284H1135.21V314.5Z" fill="#235347"/>
<path d="M1207.86 283.5V315H1171.29V283.5H1207.86ZM1171.79 314.5H1207.36V284H1171.79V314.5Z" fill="#235347"/>
<path d="M1244.43 283.5V315H1207.86V283.5H1244.43ZM1208.36 314.5H1243.93V284H1208.36V314.5Z" fill="#235347"/>
<path d="M1281 283.5V315H1244.43V283.5H1281ZM1244.93 314.5H1280.5V284H1244.93V314.5Z" fill="#235347"/>
<path d="M1061.57 315V346.5H1025V315H1061.57ZM1025.5 346H1061.07V315.5H1025.5V346Z" fill="#235347"/>
<path d="M1098.14 315V346.5H1061.57V315H1098.14ZM1062.07 346H1097.64V315.5H1062.07V346Z" fill="#235347"/>
<path d="M1134.71 315V346.5H1098.14V315H1134.71ZM1098.64 346H1134.21V315.5H1098.64V346Z" fill="#235347"/>
<path d="M1171.29 315V346.5H1134.71V315H1171.29ZM1135.21 346H1170.79V315.5H1135.21V346Z" fill="#235347"/>
<path d="M1207.86 315V346.5H1171.29V315H1207.86ZM1171.79 346H1207.36V315.5H1171.79V346Z" fill="#235347"/>
<path d="M1244.43 315V346.5H1207.86V315H1244.43ZM1208.36 346H1243.93V315.5H1208.36V346Z" fill="#235347"/>
<path d="M1281 315V346.5H1244.43V315H1281ZM1244.93 346H1280.5V315.5H1244.93V346Z" fill="#235347"/>
<path d="M1061.57 346.5V378H1025V346.5H1061.57ZM1025.5 377.5H1061.07V347H1025.5V377.5Z" fill="#235347"/>
<path d="M1098.14 346.5V378H1061.57V346.5H1098.14ZM1062.07 377.5H1097.64V347H1062.07V377.5Z" fill="#235347"/>
<path d="M1134.71 346.5V378H1098.14V346.5H1134.71ZM1098.64 377.5H1134.21V347H1098.64V377.5Z" fill="#235347"/>
<path d="M1171.29 346.5V378H1134.71V346.5H1171.29ZM1135.21 377.5H1170.79V347H1135.21V377.5Z" fill="#235347"/>
<path d="M1207.86 346.5V378H1171.29V346.5H1207.86ZM1171.79 377.5H1207.36V347H1171.79V377.5Z" fill="#235347"/>
<path d="M1244.43 346.5V378H1207.86V346.5H1244.43ZM1208.36 377.5H1243.93V347H1208.36V377.5Z" fill="#235347"/>
<path d="M1281 346.5V378H1244.43V346.5H1281ZM1244.93 377.5H1280.5V347H1244.93V377.5Z" fill="#235347"/>
<path d="M1061.57 378V409.5H1025V378H1061.57ZM1025.5 409H1061.07V378.5H1025.5V409Z" fill="#235347"/>
<path d="M1098.14 378V409.5H1061.57V378H1098.14ZM1062.07 409H1097.64V378.5H1062.07V409Z" fill="#235347"/>
<path d="M1134.71 378V409.5H1098.14V378H1134.71ZM1098.64 409H1134.21V378.5H1098.64V409Z" fill="#235347"/>
<path d="M1171.29 378V409.5H1134.71V378H1171.29ZM1135.21 409H1170.79V378.5H1135.21V409Z" fill="#235347"/>
<path d="M1207.86 378V409.5H1171.29V378H1207.86ZM1171.79 409H1207.36V378.5H1171.79V409Z" fill="#235347"/>
<path d="M1244.43 378V409.5H1207.86V378H1244.43ZM1208.36 409H1243.93V378.5H1208.36V409Z" fill="#235347"/>
<path d="M1281 378V409.5H1244.43V378H1281ZM1244.93 409H1280.5V378.5H1244.93V409Z" fill="#235347"/>
<path d="M1061.57 409.5V441H1025V409.5H1061.57ZM1025.5 440.5H1061.07V410H1025.5V440.5Z" fill="#235347"/>
<path d="M1098.14 409.5V441H1061.57V409.5H1098.14ZM1062.07 440.5H1097.64V410H1062.07V440.5Z" fill="#235347"/>
<path d="M1134.71 409.5V441H1098.14V409.5H1134.71ZM1098.64 440.5H1134.21V410H1098.64V440.5Z" fill="#235347"/>
<path d="M1171.29 409.5V441H1134.71V409.5H1171.29ZM1135.21 440.5H1170.79V410H1135.21V440.5Z" fill="#235347"/>
<path d="M1207.86 409.5V441H1171.29V409.5H1207.86ZM1171.79 440.5H1207.36V410H1171.79V440.5Z" fill="#235347"/>
<path d="M1244.43 409.5V441H1207.86V409.5H1244.43ZM1208.36 440.5H1243.93V410H1208.36V440.5Z" fill="#235347"/>
<path d="M1281 409.5V441H1244.43V409.5H1281ZM1244.93 440.5H1280.5V410H1244.93V440.5Z" fill="#235347"/>
<path d="M1061.57 441V472.5H1025V441H1061.57ZM1025.5 472H1061.07V441.5H1025.5V472Z" fill="#235347"/>
<path d="M1098.14 441V472.5H1061.57V441H1098.14ZM1062.07 472H1097.64V441.5H1062.07V472Z" fill="#235347"/>
<path d="M1134.71 441V472.5H1098.14V441H1134.71ZM1098.64 472H1134.21V441.5H1098.64V472Z" fill="#235347"/>
<path d="M1171.29 441V472.5H1134.71V441H1171.29ZM1135.21 472H1170.79V441.5H1135.21V472Z" fill="#235347"/>
<path d="M1207.86 441V472.5H1171.29V441H1207.86ZM1171.79 472H1207.36V441.5H1171.79V472Z" fill="#235347"/>
<path d="M1244.43 441V472.5H1207.86V441H1244.43ZM1208.36 472H1243.93V441.5H1208.36V472Z" fill="#235347"/>
<path d="M1281 441V472.5H1244.43V441H1281ZM1244.93 472H1280.5V441.5H1244.93V472Z" fill="#235347"/>
<path d="M1061.57 472.5V504H1025V472.5H1061.57ZM1025.5 503.5H1061.07V473H1025.5V503.5Z" fill="#235347"/>
<path d="M1098.14 472.5V504H1061.57V472.5H1098.14ZM1062.07 503.5H1097.64V473H1062.07V503.5Z" fill="#235347"/>
<path d="M1134.71 472.5V504H1098.14V472.5H1134.71ZM1098.64 503.5H1134.21V473H1098.64V503.5Z" fill="#235347"/>
<path d="M1171.29 472.5V504H1134.71V472.5H1171.29ZM1135.21 503.5H1170.79V473H1135.21V503.5Z" fill="#235347"/>
<path d="M1207.86 472.5V504H1171.29V472.5H1207.86ZM1171.79 503.5H1207.36V473H1171.79V503.5Z" fill="#235347"/>
<path d="M1244.43 472.5V504H1207.86V472.5H1244.43ZM1208.36 503.5H1243.93V473H1208.36V503.5Z" fill="#235347"/>
<path d="M1281 472.5V504H1244.43V472.5H1281ZM1244.93 503.5H1280.5V473H1244.93V503.5Z" fill="#235347"/>
<path d="M1061.57 504V535.5H1025V504H1061.57ZM1025.5 535H1061.07V504.5H1025.5V535Z" fill="#235347"/>
<path d="M1098.14 504V535.5H1061.57V504H1098.14ZM1062.07 535H1097.64V504.5H1062.07V535Z" fill="#235347"/>
<path d="M1134.71 504V535.5H1098.14V504H1134.71ZM1098.64 535H1134.21V504.5H1098.64V535Z" fill="#235347"/>
<path d="M1171.29 504V535.5H1134.71V504H1171.29ZM1135.21 535H1170.79V504.5H1135.21V535Z" fill="#235347"/>
<path d="M1207.86 504V535.5H1171.29V504H1207.86ZM1171.79 535H1207.36V504.5H1171.79V535Z" fill="#235347"/>
<path d="M1244.43 504V535.5H1207.86V504H1244.43ZM1208.36 535H1243.93V504.5H1208.36V535Z" fill="#235347"/>
<path d="M1281 504V535.5H1244.43V504H1281ZM1244.93 535H1280.5V504.5H1244.93V535Z" fill="#235347"/>
<path d="M1061.57 535.5V567H1025V535.5H1061.57ZM1025.5 566.5H1061.07V536H1025.5V566.5Z" fill="#235347"/>
<path d="M1098.14 535.5V567H1061.57V535.5H1098.14ZM1062.07 566.5H1097.64V536H1062.07V566.5Z" fill="#235347"/>
<path d="M1134.71 535.5V567H1098.14V535.5H1134.71ZM1098.64 566.5H1134.21V536H1098.64V566.5Z" fill="#235347"/>
<path d="M1171.29 535.5V567H1134.71V535.5H1171.29ZM1135.21 566.5H1170.79V536H1135.21V566.5Z" fill="#235347"/>
<path d="M1207.86 535.5V567H1171.29V535.5H1207.86ZM1171.79 566.5H1207.36V536H1171.79V566.5Z" fill="#235347"/>
<path d="M1244.43 535.5V567H1207.86V535.5H1244.43ZM1208.36 566.5H1243.93V536H1208.36V566.5Z" fill="#235347"/>
<path d="M1281 535.5V567H1244.43V535.5H1281ZM1244.93 566.5H1280.5V536H1244.93V566.5Z" fill="#235347"/>
<path d="M1061.57 567V598.5H1025V567H1061.57ZM1025.5 598H1061.07V567.5H1025.5V598Z" fill="#235347"/>
<path d="M1098.14 567V598.5H1061.57V567H1098.14ZM1062.07 598H1097.64V567.5H1062.07V598Z" fill="#235347"/>
<path d="M1134.71 567V598.5H1098.14V567H1134.71ZM1098.64 598H1134.21V567.5H1098.64V598Z" fill="#235347"/>
<path d="M1171.29 567V598.5H1134.71V567H1171.29ZM1135.21 598H1170.79V567.5H1135.21V598Z" fill="#235347"/>
<path d="M1207.86 567V598.5H1171.29V567H1207.86ZM1171.79 598H1207.36V567.5H1171.79V598Z" fill="#235347"/>
<path d="M1244.43 567V598.5H1207.86V567H1244.43ZM1208.36 598H1243.93V567.5H1208.36V598Z" fill="#235347"/>
<path d="M1281 567V598.5H1244.43V567H1281ZM1244.93 598H1280.5V567.5H1244.93V598Z" fill="#235347"/>
<path d="M1061.57 598.5V630H1025V598.5H1061.57ZM1025.5 629.5H1061.07V599H1025.5V629.5Z" fill="#235347"/>
<path d="M1098.14 598.5V630H1061.57V598.5H1098.14ZM1062.07 629.5H1097.64V599H1062.07V629.5Z" fill="#235347"/>
<path d="M1134.71 598.5V630H1098.14V598.5H1134.71ZM1098.64 629.5H1134.21V599H1098.64V629.5Z" fill="#235347"/>
<path d="M1171.29 598.5V630H1134.71V598.5H1171.29ZM1135.21 629.5H1170.79V599H1135.21V629.5Z" fill="#235347"/>
<path d="M1207.86 598.5V630H1171.29V598.5H1207.86ZM1171.79 629.5H1207.36V599H1171.79V629.5Z" fill="#235347"/>
<path d="M1244.43 598.5V630H1207.86V598.5H1244.43ZM1208.36 629.5H1243.93V599H1208.36V629.5Z" fill="#235347"/>
<path d="M1281 598.5V630H1244.43V598.5H1281ZM1244.93 629.5H1280.5V599H1244.93V629.5Z" fill="#235347"/>
<path d="M1061.57 630V661.5H1025V630H1061.57ZM1025.5 661H1061.07V630.5H1025.5V661Z" fill="#235347"/>
<path d="M1098.14 630V661.5H1061.57V630H1098.14ZM1062.07 661H1097.64V630.5H1062.07V661Z" fill="#235347"/>
<path d="M1134.71 630V661.5H1098.14V630H1134.71ZM1098.64 661H1134.21V630.5H1098.64V661Z" fill="#235347"/>
<path d="M1171.29 630V661.5H1134.71V630H1171.29ZM1135.21 661H1170.79V630.5H1135.21V661Z" fill="#235347"/>
<path d="M1207.86 630V661.5H1171.29V630H1207.86ZM1171.79 661H1207.36V630.5H1171.79V661Z" fill="#235347"/>
<path d="M1244.43 630V661.5H1207.86V630H1244.43ZM1208.36 661H1243.93V630.5H1208.36V661Z" fill="#235347"/>
<path d="M1281 630V661.5H1244.43V630H1281ZM1244.93 661H1280.5V630.5H1244.93V661Z" fill="#235347"/>
<path d="M1061.57 661.5V693H1025V661.5H1061.57ZM1025.5 692.5H1061.07V662H1025.5V692.5Z" fill="#235347"/>
<path d="M1098.14 661.5V693H1061.57V661.5H1098.14ZM1062.07 692.5H1097.64V662H1062.07V692.5Z" fill="#235347"/>
<path d="M1134.71 661.5V693H1098.14V661.5H1134.71ZM1098.64 692.5H1134.21V662H1098.64V692.5Z" fill="#235347"/>
<path d="M1171.29 661.5V693H1134.71V661.5H1171.29ZM1135.21 692.5H1170.79V662H1135.21V692.5Z" fill="#235347"/>
<path d="M1207.86 661.5V693H1171.29V661.5H1207.86ZM1171.79 692.5H1207.36V662H1171.79V692.5Z" fill="#235347"/>
<path d="M1244.43 661.5V693H1207.86V661.5H1244.43ZM1208.36 692.5H1243.93V662H1208.36V692.5Z" fill="#235347"/>
<path d="M1281 661.5V693H1244.43V661.5H1281ZM1244.93 692.5H1280.5V662H1244.93V692.5Z" fill="#235347"/>
</g>
</svg>
