<svg xmlns="http://www.w3.org/2000/svg" width="486" height="498" fill="none" viewBox="0 0 486 498"><g filter="url(#a)" opacity=".25"><path fill="#235347" d="m243 490 101.158-63.787v-99.287L243 390.714z"/><path fill="#235347" d="M482 339.293V75.043l-97.222-61.41v178.599L243 280.098v44.244l118.998-73.68 22.78-14.185v164.227z"/><path fill="#235347" fill-rule="evenodd" d="M344.158 326.926 243 390.714v-18.022l85.763-55.705z" clip-rule="evenodd"/><path fill="#235347" d="M141.842 326.926 243 390.714v-18.022l-86.636-54.898zM141.842 426.213 243 490v-99.286l-101.158-63.788z"/><path fill="#235347" d="M101.221 141.543 4 202.952v136.341l97.221 60.694V234.329l19.628 12.988L243 324.342v-44.244l-141.779-86.436z"/><path fill="#235347" d="M101.221 234.329v165.658l19.628-12.413V247.317zM384.778 299.271v-62.794l-22.78 14.185v135.524l22.78 14.518z"/><path fill="#235347" fill-rule="evenodd" d="m243 280.098-141.779-86.436 19.628-13.91L243 255.318z" clip-rule="evenodd"/><path fill="#235347" d="M101.221 141.543v52.119l19.628-13.91v-50.748z"/><path fill="#235347" fill-rule="evenodd" d="M243 280.098v-24.78l118.998-76.269 22.78 13.183z" clip-rule="evenodd"/><path fill="#235347" d="M384.778 192.232v-178.6L361.998 0v179.049z"/><path stroke="#031210" stroke-linejoin="round" stroke-opacity=".15" stroke-width=".5" d="M242.75 390.851v98.695l-100.658-63.472v-98.695zm101.158 35.223L243.25 489.546v-98.695l100.658-63.472zm40.619-25.827-22.279-14.198V250.801l22.279-13.874zM100.971 193.671q0 .015.004.03l.004.028a.3.3 0 0 0 .026.059q.007.011.016.022.012.016.025.03l.019.015.026.021 141.659 86.362v43.651l-121.769-76.784-19.623-12.984-.06-.029a.25.25 0 0 0-.327.237v165.207L4.25 339.153V203.09l96.721-61.093zM242.75 372.829v17.431l-100.439-63.334 14.051-8.837zm100.942-45.905L243.25 390.26v-17.433l85.513-55.543zM242.75 255.457v24.195l-141.075-86.006 19.183-13.595zm141.54-63.218-141.04 87.409v-24.194l118.755-76.113zm-263.691-12.617-19.128 13.556V141.68l19.128-12.22zM384.527 13.773v178.025l-22.279-12.895V.44zm.5 222.704a.25.25 0 0 0-.321-.24l-.06.028-22.779 14.184-118.617 73.444v-43.656l141.659-87.792q.01-.007.02-.016a.25.25 0 0 0 .091-.134.3.3 0 0 0 .007-.063V14.085L481.75 75.18v263.975l-96.723 61.095zm-283.556-1.683 19.128 12.656v139.986l-19.128 12.096z"/></g><defs><filter id="a" width="486" height="498" x="0" y="0" color-interpolation-filters="sRGB" filterUnits="userSpaceOnUse"><feFlood flood-opacity="0" result="BackgroundImageFix"/><feColorMatrix in="SourceAlpha" result="hardAlpha" values="0 0 0 0 0 0 0 0 0 0 0 0 0 0 0 0 0 0 127 0"/><feOffset dy="4"/><feGaussianBlur stdDeviation="2"/><feComposite in2="hardAlpha" operator="out"/><feColorMatrix values="0 0 0 0 0 0 0 0 0 0 0 0 0 0 0 0 0 0 0.25 0"/><feBlend in2="BackgroundImageFix" result="effect1_dropShadow_134_1246"/><feBlend in="SourceGraphic" in2="effect1_dropShadow_134_1246" result="shape"/></filter></defs></svg>