<svg xmlns="http://www.w3.org/2000/svg" width="1162" height="800" fill="none" viewBox="0 0 1162 800"><g filter="url(#a)" opacity=".5"><path fill="#735a2a" d="M772.081 788h8.637v-10.593h-6.909V736c-38 0-59.05 26.028-59.05 41.407h-10.041V788h12.632v-10.593c0-23.069 32.606-42.676 51.277-38.449v39.632h3.454z"/><path stroke="#735a2a" d="M772.081 788h8.637v-10.593h-6.909V736c-38 0-59.05 26.028-59.05 41.407h-10.041V788h12.632v-10.593c0-23.069 32.606-42.676 51.277-38.449v39.632h3.454z"/></g><g filter="url(#b)" opacity=".5"><path fill="#735a2a" d="M568.718 707.432V698h-10.593v7.545h-41.407c0 41.5 26.028 64.489 41.407 64.489V781h10.593v-13.796h-10.593c-23.069 0-42.677-35.609-38.45-55.999h39.633v-3.773z"/><path stroke="#735a2a" d="M568.718 707.432V698h-10.593v7.545h-41.407c0 41.5 26.028 64.489 41.407 64.489V781h10.593v-13.796h-10.593c-23.069 0-42.677-35.609-38.45-55.999h39.633v-3.773z"/></g><g fill="#235347" filter="url(#c)"><path fill-rule="evenodd" d="M12.218 492h556.5v10.611h-556.5z" clip-rule="evenodd"/><path d="M568.718 502.611v195h-11v-195z"/></g><g fill="#235347" filter="url(#d)"><path fill-rule="evenodd" d="M594.718 130h558.502v10.611H594.718z" clip-rule="evenodd"/><path d="M1153.22 140.611v109h-11v-109z"/></g><g fill="#235347" filter="url(#e)"><path fill-rule="evenodd" d="M1141.22 493H634.718v10.611h506.502z" clip-rule="evenodd"/><path d="M634.718 503.611v274h11v-274z"/></g><g stroke="#735a2a" opacity=".5"><path d="m1102.93 202 14.73-10.851a2 2 0 0 0 .46-2.744l-13.23-19.197a2 2 0 0 0-2.84-.471l-15.81 11.763m16.69 21.5-1.09.806c-.9.658-2.15.464-2.81-.434l-13.65-18.772a2.005 2.005 0 0 1 .43-2.781l.43-.319m16.69 21.5 3.59 4.505c.67.836 1.88.999 2.74.37l18.8-13.67c.91-.661 1.1-1.94.41-2.832l-23.56-30.816a2 2 0 0 0-2.77-.398l-19.2 14.08c-.93.683-1.1 2.01-.35 2.896l3.65 4.365M1036.5 202l-14.72-10.851a1.99 1.99 0 0 1-.46-2.744l13.22-19.197a2 2 0 0 1 2.84-.471l15.82 11.763m-16.7 21.5 1.1.806c.89.658 2.15.464 2.8-.434l13.65-18.772c.65-.886.46-2.127-.42-2.781l-.43-.319m-16.7 21.5-3.59 4.505a2 2 0 0 1-2.74.37l-18.8-13.67a2.01 2.01 0 0 1-.41-2.832l23.57-30.816a2 2 0 0 1 2.77-.398l19.2 14.08c.93.683 1.09 2.01.35 2.896l-3.65 4.365M1102.93 231l14.73 10.851a2 2 0 0 1 .46 2.744l-13.23 19.197a2 2 0 0 1-2.84.471l-15.81-11.763m16.69-21.5-1.09-.806a2.007 2.007 0 0 0-2.81.434l-13.65 18.772c-.64.886-.45 2.127.43 2.781l.43.319m16.69-21.5 3.59-4.505a2 2 0 0 1 2.74-.37l18.8 13.67c.91.661 1.1 1.94.41 2.832l-23.56 30.816a2 2 0 0 1-2.77.398l-19.2-14.08a1.993 1.993 0 0 1-.35-2.896l3.65-4.365M1036.5 231l-14.72 10.851a1.99 1.99 0 0 0-.46 2.744l13.22 19.197a2 2 0 0 0 2.84.471l15.82-11.763m-16.7-21.5 1.1-.806a1.995 1.995 0 0 1 2.8.434l13.65 18.772c.65.886.46 2.127-.42 2.781l-.43.319m-16.7-21.5-3.59-4.505a2 2 0 0 0-2.74-.37l-18.8 13.67c-.9.661-1.09 1.94-.41 2.832l23.57 30.816a2 2 0 0 0 2.77.398l19.2-14.08c.93-.683 1.09-2.01.35-2.896l-3.65-4.365"/><circle cx="1068.22" cy="216.5" r="18.5" transform="rotate(180 1068.22 216.5)"/></g><g filter="url(#f)"><path fill="#163832" d="m663.597 0 1.121 57.312H11.282V276H.718V46.743h653.435L653.033 0z"/></g><g filter="url(#g)"><path fill="#235347" d="M.718 787.997V558.74h10.564v218.688h694.436v10.569z"/></g><g filter="url(#h)"><path fill="#235347" d="m1152.68 791.409.04-128.669h-10.57l.03 118.029-362.422-2.753-.071 10.569z"/></g><g filter="url(#i)"><path stroke="#735a2a" d="M6 276H.5v282H6m0-282h5.5v282H6m0-282v282" shape-rendering="crispEdges"/></g><g filter="url(#j)"><path stroke="#735a2a" d="M1147.22 536h-5.5v127h5.5m0-127h5.5v127h-5.5m0-127v127" shape-rendering="crispEdges"/></g><g filter="url(#k)"><path stroke="#735a2a" d="M1147.22 250h-5.5v187h5.5m0-187h5.5v187h-5.5m0-187v187" shape-rendering="crispEdges"/></g><g filter="url(#l)"><path stroke="#735a2a" d="M563.218 376h-5.5v116h5.5m0-116h5.5v116h-5.5m0-116v116" shape-rendering="crispEdges"/></g><g filter="url(#m)"><path fill="#235347" d="M1152.72 437v99h-11v-99h11"/></g><g stroke="#735a2a" opacity=".5"><path stroke-width="1.5" d="M977.718 547v-29.5m0 0V510h159.002v194h-38M977.718 517.5h151.002V696h-30"/><path stroke-width=".8" d="M1098.72 548v-38m0 38h-30m30 0h38m-38 0v29.5m0 88.5v-29.5m0 29.5h38m-38 0v27m-30-183v38m0 0h-30m0-38v38m0 0h-30.5m0-38v38m0 0h-36.502v-44h170.002v206h-43v-17M977.718 520.5h148.502V693h-27.5m0-115.5h38m-38 0V607m0 0h38m-38 0v29.5m0 0h38"/></g><path stroke="#735a2a" d="M51.218 331.5h3V290h-3m0 41.5h-38.5V290h38.5m0 41.5V290m84 201.5V454h-85V333.5h-37.5v158z"/><g fill="#c9a96e" opacity=".5"><path d="M110.718 463.5a.5.5 0 0 0 .5-.5v-.5a.5.5 0 0 0-.5-.5h-16a.5.5 0 0 0-.5.5v.5a.5.5 0 0 0 .5.5zM110.718 466.5a.5.5 0 0 0 .5-.5v-.5a.5.5 0 0 0-.5-.5h-16a.5.5 0 0 0-.5.5v.5a.5.5 0 0 0 .5.5zM110.718 470a.5.5 0 0 0 .5-.5v-.5a.5.5 0 0 0-.5-.5h-16a.5.5 0 0 0-.5.5v.5a.5.5 0 0 0 .5.5zM110.718 473.5a.5.5 0 0 0 .5-.5v-.5a.5.5 0 0 0-.5-.5h-16a.5.5 0 0 0-.5.5v.5a.5.5 0 0 0 .5.5zM110.718 476.5a.5.5 0 0 0 .5-.5v-.5a.5.5 0 0 0-.5-.5h-16a.5.5 0 0 0-.5.5v.5a.5.5 0 0 0 .5.5zM110.718 479.5a.5.5 0 0 0 .5-.5v-.5a.5.5 0 0 0-.5-.5h-16a.5.5 0 0 0-.5.5v.5a.5.5 0 0 0 .5.5zM110.718 482.5a.5.5 0 0 0 .5-.5v-.5a.5.5 0 0 0-.5-.5h-16a.5.5 0 0 0-.5.5v.5a.5.5 0 0 0 .5.5z"/><path fill-rule="evenodd" d="M75.718 482.5a.5.5 0 0 1 .5.5.5.5 0 0 0 .5.5h2a.5.5 0 0 0 .5-.5.5.5 0 0 1 .5-.5h5a.5.5 0 0 1 .5.5.5.5 0 0 0 .5.5h2a.5.5 0 0 0 .5-.5.5.5 0 0 1 .5-.5h3a.5.5 0 0 0 .5-.5v-18a.5.5 0 0 0-.5-.5.5.5 0 0 1-.5-.5v-1a.5.5 0 0 0-.5-.5h-17a.5.5 0 0 0-.5.5v1a.5.5 0 0 1-.5.5.5.5 0 0 0-.5.5v18a.5.5 0 0 0 .5.5zm-2.5-2.5a.5.5 0 0 0 .5.5h2a.5.5 0 0 0 .5-.5v-2a.5.5 0 0 1 .5-.5h2a.5.5 0 0 1 .5.5v2a.5.5 0 0 0 1 0v-4a.5.5 0 0 0-.5-.5.5.5 0 0 1-.5-.5v-2a.5.5 0 0 1 .5-.5h4a.5.5 0 0 1 .5.5v2a.5.5 0 0 1-.5.5.5.5 0 0 0-.5.5v4a.5.5 0 0 0 .5.5h1a.5.5 0 0 0 .5-.5v-2a.5.5 0 0 1 .5-.5h2a.5.5 0 0 1 .5.5v2a.5.5 0 0 0 .5.5h2a.5.5 0 0 0 .5-.5v-15a.5.5 0 0 0-.5-.5.5.5 0 0 1-.5-.5.5.5 0 0 0-.5-.5h-15a.5.5 0 0 0-.5.5.5.5 0 0 1-.5.5.5.5 0 0 0-.5.5z" clip-rule="evenodd"/><path fill-rule="evenodd" d="M116.718 486a.5.5 0 0 1-.5.5h-48.5a.5.5 0 0 1-.5-.5v-30a.5.5 0 0 1 .5-.5h48.5a.5.5 0 0 1 .5.5zm-46-2.5a.5.5 0 0 0 .5.5h42a.5.5 0 0 0 .5-.5V459a.5.5 0 0 0-.5-.5h-42a.5.5 0 0 0-.5.5z" clip-rule="evenodd"/></g><defs><filter id="a" width="85" height="61" x="704.218" y="735.5" color-interpolation-filters="sRGB" filterUnits="userSpaceOnUse"><feFlood flood-opacity="0" result="BackgroundImageFix"/><feColorMatrix in="SourceAlpha" result="hardAlpha" values="0 0 0 0 0 0 0 0 0 0 0 0 0 0 0 0 0 0 127 0"/><feOffset dx="4" dy="4"/><feGaussianBlur stdDeviation="2"/><feComposite in2="hardAlpha" operator="out"/><feColorMatrix values="0 0 0 0 0 0 0 0 0 0 0 0 0 0 0 0 0 0 0.25 0"/><feBlend in2="BackgroundImageFix" result="effect1_dropShadow_15_24"/><feBlend in="SourceGraphic" in2="effect1_dropShadow_15_24" result="shape"/></filter><filter id="b" width="61" height="92" x="516.218" y="697.5" color-interpolation-filters="sRGB" filterUnits="userSpaceOnUse"><feFlood flood-opacity="0" result="BackgroundImageFix"/><feColorMatrix in="SourceAlpha" result="hardAlpha" values="0 0 0 0 0 0 0 0 0 0 0 0 0 0 0 0 0 0 127 0"/><feOffset dx="4" dy="4"/><feGaussianBlur stdDeviation="2"/><feComposite in2="hardAlpha" operator="out"/><feColorMatrix values="0 0 0 0 0 0 0 0 0 0 0 0 0 0 0 0 0 0 0.25 0"/><feBlend in2="BackgroundImageFix" result="effect1_dropShadow_15_24"/><feBlend in="SourceGraphic" in2="effect1_dropShadow_15_24" result="shape"/></filter><filter id="c" width="564.5" height="213.611" x="12.218" y="492" color-interpolation-filters="sRGB" filterUnits="userSpaceOnUse"><feFlood flood-opacity="0" result="BackgroundImageFix"/><feColorMatrix in="SourceAlpha" result="hardAlpha" values="0 0 0 0 0 0 0 0 0 0 0 0 0 0 0 0 0 0 127 0"/><feOffset dx="4" dy="4"/><feGaussianBlur stdDeviation="2"/><feComposite in2="hardAlpha" operator="out"/><feColorMatrix values="0 0 0 0 0 0 0 0 0 0 0 0 0 0 0 0 0 0 0.25 0"/><feBlend in2="BackgroundImageFix" result="effect1_dropShadow_15_24"/><feBlend in="SourceGraphic" in2="effect1_dropShadow_15_24" result="shape"/></filter><filter id="d" width="566.5" height="127.611" x="594.718" y="130" color-interpolation-filters="sRGB" filterUnits="userSpaceOnUse"><feFlood flood-opacity="0" result="BackgroundImageFix"/><feColorMatrix in="SourceAlpha" result="hardAlpha" values="0 0 0 0 0 0 0 0 0 0 0 0 0 0 0 0 0 0 127 0"/><feOffset dx="4" dy="4"/><feGaussianBlur stdDeviation="2"/><feComposite in2="hardAlpha" operator="out"/><feColorMatrix values="0 0 0 0 0 0 0 0 0 0 0 0 0 0 0 0 0 0 0.25 0"/><feBlend in2="BackgroundImageFix" result="effect1_dropShadow_15_24"/><feBlend in="SourceGraphic" in2="effect1_dropShadow_15_24" result="shape"/></filter><filter id="e" width="514.5" height="292.611" x="634.718" y="493" color-interpolation-filters="sRGB" filterUnits="userSpaceOnUse"><feFlood flood-opacity="0" result="BackgroundImageFix"/><feColorMatrix in="SourceAlpha" result="hardAlpha" values="0 0 0 0 0 0 0 0 0 0 0 0 0 0 0 0 0 0 127 0"/><feOffset dx="4" dy="4"/><feGaussianBlur stdDeviation="2"/><feComposite in2="hardAlpha" operator="out"/><feColorMatrix values="0 0 0 0 0 0 0 0 0 0 0 0 0 0 0 0 0 0 0.25 0"/><feBlend in2="BackgroundImageFix" result="effect1_dropShadow_15_24"/><feBlend in="SourceGraphic" in2="effect1_dropShadow_15_24" result="shape"/></filter><filter id="f" width="672" height="284" x=".718" y="0" color-interpolation-filters="sRGB" filterUnits="userSpaceOnUse"><feFlood flood-opacity="0" result="BackgroundImageFix"/><feColorMatrix in="SourceAlpha" result="hardAlpha" values="0 0 0 0 0 0 0 0 0 0 0 0 0 0 0 0 0 0 127 0"/><feOffset dx="4" dy="4"/><feGaussianBlur stdDeviation="2"/><feComposite in2="hardAlpha" operator="out"/><feColorMatrix values="0 0 0 0 0 0 0 0 0 0 0 0 0 0 0 0 0 0 0.25 0"/><feBlend in2="BackgroundImageFix" result="effect1_dropShadow_15_24"/><feBlend in="SourceGraphic" in2="effect1_dropShadow_15_24" result="shape"/></filter><filter id="g" width="713" height="237.257" x=".718" y="558.74" color-interpolation-filters="sRGB" filterUnits="userSpaceOnUse"><feFlood flood-opacity="0" result="BackgroundImageFix"/><feColorMatrix in="SourceAlpha" result="hardAlpha" values="0 0 0 0 0 0 0 0 0 0 0 0 0 0 0 0 0 0 127 0"/><feOffset dx="4" dy="4"/><feGaussianBlur stdDeviation="2"/><feComposite in2="hardAlpha" operator="out"/><feColorMatrix values="0 0 0 0 0 0 0 0 0 0 0 0 0 0 0 0 0 0 0.25 0"/><feBlend in2="BackgroundImageFix" result="effect1_dropShadow_15_24"/><feBlend in="SourceGraphic" in2="effect1_dropShadow_15_24" result="shape"/></filter><filter id="h" width="381.031" height="136.669" x="779.687" y="662.74" color-interpolation-filters="sRGB" filterUnits="userSpaceOnUse"><feFlood flood-opacity="0" result="BackgroundImageFix"/><feColorMatrix in="SourceAlpha" result="hardAlpha" values="0 0 0 0 0 0 0 0 0 0 0 0 0 0 0 0 0 0 127 0"/><feOffset dx="4" dy="4"/><feGaussianBlur stdDeviation="2"/><feComposite in2="hardAlpha" operator="out"/><feColorMatrix values="0 0 0 0 0 0 0 0 0 0 0 0 0 0 0 0 0 0 0.25 0"/><feBlend in2="BackgroundImageFix" result="effect1_dropShadow_15_24"/><feBlend in="SourceGraphic" in2="effect1_dropShadow_15_24" result="shape"/></filter><filter id="i" width="20" height="291" x="0" y="275.5" color-interpolation-filters="sRGB" filterUnits="userSpaceOnUse"><feFlood flood-opacity="0" result="BackgroundImageFix"/><feColorMatrix in="SourceAlpha" result="hardAlpha" values="0 0 0 0 0 0 0 0 0 0 0 0 0 0 0 0 0 0 127 0"/><feOffset dx="4" dy="4"/><feGaussianBlur stdDeviation="2"/><feComposite in2="hardAlpha" operator="out"/><feColorMatrix values="0 0 0 0 0 0 0 0 0 0 0 0 0 0 0 0 0 0 0.25 0"/><feBlend in2="BackgroundImageFix" result="effect1_dropShadow_15_24"/><feBlend in="SourceGraphic" in2="effect1_dropShadow_15_24" result="shape"/></filter><filter id="j" width="20" height="136" x="1141.22" y="535.5" color-interpolation-filters="sRGB" filterUnits="userSpaceOnUse"><feFlood flood-opacity="0" result="BackgroundImageFix"/><feColorMatrix in="SourceAlpha" result="hardAlpha" values="0 0 0 0 0 0 0 0 0 0 0 0 0 0 0 0 0 0 127 0"/><feOffset dx="4" dy="4"/><feGaussianBlur stdDeviation="2"/><feComposite in2="hardAlpha" operator="out"/><feColorMatrix values="0 0 0 0 0 0 0 0 0 0 0 0 0 0 0 0 0 0 0.25 0"/><feBlend in2="BackgroundImageFix" result="effect1_dropShadow_15_24"/><feBlend in="SourceGraphic" in2="effect1_dropShadow_15_24" result="shape"/></filter><filter id="k" width="20" height="196" x="1141.22" y="249.5" color-interpolation-filters="sRGB" filterUnits="userSpaceOnUse"><feFlood flood-opacity="0" result="BackgroundImageFix"/><feColorMatrix in="SourceAlpha" result="hardAlpha" values="0 0 0 0 0 0 0 0 0 0 0 0 0 0 0 0 0 0 127 0"/><feOffset dx="4" dy="4"/><feGaussianBlur stdDeviation="2"/><feComposite in2="hardAlpha" operator="out"/><feColorMatrix values="0 0 0 0 0 0 0 0 0 0 0 0 0 0 0 0 0 0 0.25 0"/><feBlend in2="BackgroundImageFix" result="effect1_dropShadow_15_24"/><feBlend in="SourceGraphic" in2="effect1_dropShadow_15_24" result="shape"/></filter><filter id="l" width="20" height="125" x="557.218" y="375.5" color-interpolation-filters="sRGB" filterUnits="userSpaceOnUse"><feFlood flood-opacity="0" result="BackgroundImageFix"/><feColorMatrix in="SourceAlpha" result="hardAlpha" values="0 0 0 0 0 0 0 0 0 0 0 0 0 0 0 0 0 0 127 0"/><feOffset dx="4" dy="4"/><feGaussianBlur stdDeviation="2"/><feComposite in2="hardAlpha" operator="out"/><feColorMatrix values="0 0 0 0 0 0 0 0 0 0 0 0 0 0 0 0 0 0 0.25 0"/><feBlend in2="BackgroundImageFix" result="effect1_dropShadow_15_24"/><feBlend in="SourceGraphic" in2="effect1_dropShadow_15_24" result="shape"/></filter><filter id="m" width="19" height="107" x="1141.72" y="437" color-interpolation-filters="sRGB" filterUnits="userSpaceOnUse"><feFlood flood-opacity="0" result="BackgroundImageFix"/><feColorMatrix in="SourceAlpha" result="hardAlpha" values="0 0 0 0 0 0 0 0 0 0 0 0 0 0 0 0 0 0 127 0"/><feOffset dx="4" dy="4"/><feGaussianBlur stdDeviation="2"/><feComposite in2="hardAlpha" operator="out"/><feColorMatrix values="0 0 0 0 0 0 0 0 0 0 0 0 0 0 0 0 0 0 0.25 0"/><feBlend in2="BackgroundImageFix" result="effect1_dropShadow_15_24"/><feBlend in="SourceGraphic" in2="effect1_dropShadow_15_24" result="shape"/></filter></defs></svg>