<svg width="126" height="128" viewBox="0 0 126 128" fill="none" xmlns="http://www.w3.org/2000/svg">
<g filter="url(#filter0_d_134_1472)">
<path d="M62.5714 120L87.3621 104.379V80.0636L62.5714 95.685V120Z" fill="#735A2A"/>
<path d="M121.143 83.0923V18.3777L97.3167 3.33849V47.0773L62.5714 68.5955V79.4308L91.7342 61.3866L97.3167 57.9126V73.2909V98.1315L121.143 83.0923Z" fill="#735A2A"/>
<path fill-rule="evenodd" clip-rule="evenodd" d="M87.3621 80.0636L62.5714 95.685V91.2715L83.5891 77.6293L87.3621 80.0636Z" fill="#4E4027"/>
<path d="M37.7807 80.0636L62.5714 95.685V91.2715L41.3397 77.827L37.7807 80.0636Z" fill="#735A2A"/>
<path d="M37.7807 104.379L62.5714 120V95.685L37.7807 80.0636V104.379Z" fill="#C9A96E"/>
<path d="M27.8258 34.6637L4 49.7027V83.0923L27.8258 97.956V72.765L27.8258 57.3868L32.6359 60.5674L62.5714 79.4308V68.5955L27.8258 47.4275L27.8258 34.6637Z" fill="#C9A96E"/>
<path d="M27.8258 57.3868L27.8258 72.765V97.956L32.6359 94.916V60.5674L27.8258 57.3868Z" fill="#735A2A"/>
<path d="M97.3167 73.2909V57.9126L91.7342 61.3866V94.5762L97.3167 98.1315V73.2909Z" fill="#4E4027"/>
<path fill-rule="evenodd" clip-rule="evenodd" d="M62.5714 68.5955L27.8258 47.4275L32.6359 44.0208L62.5714 62.5269V68.5955Z" fill="#735A2A"/>
<path d="M27.8258 34.6637L27.8258 47.4275L32.6359 44.0208V31.5929L27.8258 34.6637Z" fill="#735A2A"/>
<path fill-rule="evenodd" clip-rule="evenodd" d="M62.5714 68.5955V62.5269L91.7342 43.8487L97.3167 47.0773L62.5714 68.5955Z" fill="#4E4027"/>
<path d="M97.3167 47.0773V3.33849L91.7342 0V43.8487L97.3167 47.0773Z" fill="#4E4027"/>
<path d="M62.3213 95.8223V119.546L38.0303 104.239V80.5166L62.3213 95.8223ZM87.1123 104.239L62.8213 119.546V95.8232L87.1123 80.5166V104.239ZM97.0664 97.6758L91.9844 94.4385V61.5244L97.0664 58.3623V97.6758ZM27.5762 47.4365C27.5766 47.4492 27.5797 47.4614 27.582 47.4736C27.5835 47.4815 27.5837 47.4895 27.5859 47.4971C27.5917 47.517 27.5999 47.5359 27.6104 47.5537C27.6153 47.5622 27.622 47.5693 27.6279 47.5771C27.6351 47.5866 27.6419 47.5961 27.6504 47.6045C27.6563 47.6104 27.6634 47.6148 27.6699 47.6201C27.6784 47.6269 27.6859 47.6349 27.6953 47.6406L62.3213 68.7354V78.9775L32.7686 60.3555L27.9639 57.1787L27.9023 57.1484C27.8386 57.1279 27.7677 57.1344 27.707 57.167C27.6262 57.2106 27.5762 57.2949 27.5762 57.3867V97.5059L4.25 82.9521V49.8398L27.5762 35.1162V47.4365ZM62.3213 91.4082V95.2314L38.25 80.0635L41.3389 78.1221L62.3213 91.4082ZM86.8965 80.0605L62.8213 95.2314V91.4072L83.5889 77.9268L86.8965 80.0605ZM62.3213 62.665V68.1504L28.2803 47.4111L32.6445 44.3193L62.3213 62.665ZM96.8301 47.085L62.8213 68.1455V62.6631L91.7402 44.1406L96.8301 47.085ZM32.3857 43.8906L28.0762 46.9434V34.7998L32.3857 32.0488V43.8906ZM97.0664 3.47949V46.6436L91.9844 43.7041V0.44043L97.0664 3.47949ZM97.5664 57.9131C97.5664 57.8224 97.5176 57.7385 97.4385 57.6943C97.3591 57.6503 97.2616 57.6523 97.1846 57.7002L91.6025 61.1738L62.8213 78.9814V68.7344L97.4482 47.29C97.4594 47.2832 97.4688 47.274 97.4785 47.2656C97.484 47.2609 97.4901 47.2571 97.4951 47.252C97.5257 47.2207 97.5477 47.182 97.5586 47.1396C97.5638 47.1195 97.5664 47.0985 97.5664 47.0771V3.79102L120.893 18.5146V82.9541L97.5664 97.6777V57.9131ZM28.0762 57.8525L32.3857 60.7012V94.7783L28.0762 97.502V57.8525Z" stroke="#031210" stroke-opacity="0.15" stroke-width="0.5" stroke-linejoin="round"/>
</g>
<defs>
<filter id="filter0_d_134_1472" x="0" y="0" width="125.143" height="128" filterUnits="userSpaceOnUse" color-interpolation-filters="sRGB">
<feFlood flood-opacity="0" result="BackgroundImageFix"/>
<feColorMatrix in="SourceAlpha" type="matrix" values="0 0 0 0 0 0 0 0 0 0 0 0 0 0 0 0 0 0 127 0" result="hardAlpha"/>
<feOffset dy="4"/>
<feGaussianBlur stdDeviation="2"/>
<feComposite in2="hardAlpha" operator="out"/>
<feColorMatrix type="matrix" values="0 0 0 0 0 0 0 0 0 0 0 0 0 0 0 0 0 0 0.25 0"/>
<feBlend mode="normal" in2="BackgroundImageFix" result="effect1_dropShadow_134_1472"/>
<feBlend mode="normal" in="SourceGraphic" in2="effect1_dropShadow_134_1472" result="shape"/>
</filter>
</defs>
</svg>
