<svg width="260" height="190" viewBox="0 0 260 190" fill="none" xmlns="http://www.w3.org/2000/svg">
<g opacity="0.25">
<path d="M201.707 1V55.7002H187.25V1H201.707ZM185.25 1V55.7002H170.793V1H185.25ZM168.793 1V55.7002H154.074V1H168.793ZM152.074 1V55.7002H136.834V1H152.074ZM134.834 1V55.7002H120.116V1H134.834ZM118.116 1V55.7002H103.397V1H118.116ZM101.397 1V55.7002H86.1572V1H101.397ZM84.1572 1V55.7002H69.4385V1H84.1572ZM67.4385 1V55.7002H52.7207V1H67.4385ZM50.7207 1V55.7002H35.4795V1H50.7207ZM33.4795 1V55.7002H18.7617V1H33.4795Z" stroke="#8EB69B" stroke-width="2"/>
<path d="M202.664 143.538V158.601H258.133V143.538H202.664ZM202.664 126.476V141.538H258.133V126.476H202.664ZM202.664 109.15V124.476H258.133V109.15H202.664ZM202.664 92.875V107.15H258.133V92.875H202.664ZM202.664 76.0752V90.875H258.133V76.0752H202.664ZM202.664 57.7002V74.0752H258.133V57.7002H202.664Z" stroke="#8EB69B" stroke-width="2"/>
<path d="M227.785 172.2H231.443H235.1L231.443 189L227.785 172.2Z" fill="#8EB69B"/>
<path d="M0 28.875H231.443V172.2M231.443 172.2H227.785L231.443 189L235.1 172.2H231.443Z" stroke="#8EB69B" stroke-width="2"/>
</g>
</svg>
