<svg xmlns="http://www.w3.org/2000/svg" width="369" height="270" fill="none" viewBox="0 0 369 270"><path fill="#0b2b26" d="M288.511 269.212v-80.7H25.282v80.7zm-22.423-78.7h20.423v76.7h-20.423zm-23.423 0h21.423v76.7h-21.423zm-23.795 0h21.795v76.7H218.87zm-24.538 0h22.538v76.7h-22.538zm-23.795 0h21.795v76.7h-21.795zm-23.794 0h21.794v76.7h-21.794zm-24.539 0h22.539v76.7h-22.539zm-23.794 0h21.794v76.7H98.41zm-23.795 0H96.41v76.7H74.615zm-24.538 0h22.538v76.7H50.077zm-22.795 0h20.795v76.7H27.282zM287.024 188.512V42.056h81.794v146.456zm79.794-144.456h-77.794v21.286h77.794zm0 23.286h-77.794v22.285h77.794zm0 24.285h-77.794v22.658h77.794zm0 24.658h-77.794v21.164h77.794zm0 23.164h-77.794v21.911h77.794zm0 23.911h-77.794v23.152h77.794z"/><path fill="#0b2b26" d="M330.407 229.115V25.124h5.447L330.385 0h-1.954l-5.47 25.124h5.446v201.991H0v2zm-1-224.2 3.965 18.209h-7.929z"/></svg>